<svg xmlns="http://www.w3.org/2000/svg" height="512" viewBox="0 0 512 512" width="512"><g id="Layer_24" data-name="Layer 24"><path d="m368 320 64.1-52.449a65.154 65.154 0 0 0 23.9-50.425 49.125 49.125 0 0 0 -49.126-49.126 49.127 49.127 0 0 0 -27.25 8.251l-11.624 7.749-11.624-7.749a49.122 49.122 0 0 0 -27.251-8.251 49.126 49.126 0 0 0 -49.125 49.126 65.155 65.155 0 0 0 23.9 50.425z" fill="#b52f28"></path><path d="m406.873 168a49.134 49.134 0 0 0 -27.25 8.25l-11.623 7.75-11.624-7.75a48.866 48.866 0 0 0 -44.471-5.085c-.072 1.673-.253 3.318-.253 5.009a116.205 116.205 0 0 0 92.987 113.849l27.461-22.473a65.15 65.15 0 0 0 23.9-50.424 49.125 49.125 0 0 0 -49.127-49.126z" fill="#d23f34"></path><path d="m360 280a8 8 0 0 1 -7.429-5.027l-10.353-25.883-7.562 11.347c-2.969 4.454-10.344 4.454-13.313 0l-13.625-20.437h-67.718v-16h72a8.005 8.005 0 0 1 6.657 3.562l9.343 14.016 9.344-14.016a8 8 0 0 1 14.086 1.465l7.891 19.723 17.093-51.281a8 8 0 0 1 15.016-.442l10.352 25.883 7.562-11.348c2.969-4.453 10.344-4.453 13.313 0l13.624 20.438h59.719v16h-64a8 8 0 0 1 -6.656-3.563l-9.344-14.015-9.343 14.015a7.9 7.9 0 0 1 -7.485 3.52 8 8 0 0 1 -6.6-4.984l-7.891-19.723-17.094 51.281a7.983 7.983 0 0 1 -7.353 5.469c-.078 0-.157 0-.234 0z" fill="#4fb5dc"></path><path d="m290.911 496a50.911 50.911 0 0 0 36-14.912l49.089-49.088a16 16 0 0 1 -16-16v-40l-72 72v-88a64 64 0 0 0 -64-64h-32a15.952 15.952 0 0 1 -6.586-1.414l-6.1 6.1a38.628 38.628 0 0 1 -27.314 11.314 38.627 38.627 0 0 1 -27.313-11.314l-6.1-6.1a15.941 15.941 0 0 1 -6.587 1.414h-32a64 64 0 0 0 -64 64v136z" fill="#e2e7f6"></path><path d="m360 416v-40l-72 72v-88a64 64 0 0 0 -64-64h-32a15.952 15.952 0 0 1 -6.586-1.414l-6.1 6.1a38.626 38.626 0 0 1 -54.627 0l-6.1-6.1a15.941 15.941 0 0 1 -6.587 1.414h-32a63.646 63.646 0 0 0 -39 13.335v147.471a16 16 0 0 0 16 16h278.194l40.806-40.806a16 16 0 0 1 -16-16z" fill="#f2f2f2"></path><g fill="#c8cded"><path d="m143.999 376h16v120h-16z"></path><path d="m55.999 408h16v88h-16z"></path><path d="m103.999 296 48 96-56-40h-16v-56"></path><path d="m199.999 296-48 96 56-40h16v-56"></path></g><path d="m152 392-48-96h8a15.949 15.949 0 0 0 6.586-1.414l6.1 6.1a38.627 38.627 0 0 0 27.314 11.314 38.628 38.628 0 0 0 27.314-11.314l6.1-6.1.357.158a15.965 15.965 0 0 0 6.229 1.256h8z" fill="#5ed3f2"></path><path d="m264 148v-42.264a89.734 89.734 0 0 0 -42.176-76.1 89.729 89.729 0 0 0 -47.561-13.636h-44.528a89.734 89.734 0 0 0 -47.56 13.64 89.736 89.736 0 0 0 -42.175 76.096v42.264" fill="#474747"></path><path d="m232 104v24h12a20 20 0 0 1 20 20 20 20 0 0 1 -20 20h-12a96 96 0 0 1 -38.4 76.8l-12.8 9.6a48 48 0 0 1 -28.8 9.6 48.006 48.006 0 0 1 -28.8-9.6l-12.8-9.6a96 96 0 0 1 -38.4-76.8h-12a20 20 0 0 1 -20-20 20 20 0 0 1 20-20h12v-24a16 16 0 0 1 16-16l7.523 7.522a28.94 28.94 0 0 0 20.465 8.478h74.123a28.944 28.944 0 0 0 25.889-16 16 16 0 0 1 16 16z" fill="#fbe1ca"></path><path d="m128 257.566v22.434a16 16 0 0 1 -9.414 14.586l6.1 6.1a38.627 38.627 0 0 0 27.314 11.314 38.628 38.628 0 0 0 27.314-11.314l6.1-6.1a16 16 0 0 1 -9.414-14.586v-22.434a48 48 0 0 1 -24 6.434 48.006 48.006 0 0 1 -24-6.431z" fill="#ffd8bb"></path><path d="m391.999 344h32v96h-32z" fill="#ccc"></path><path d="m408 344v64a16 16 0 0 0 16 16v-80z" fill="#f2f2f2"></path><path d="m392 352h-16a16 16 0 0 0 -16 16v48a16 16 0 0 0 16 16h16" fill="#686868"></path><path d="m376 352v48a16 16 0 0 0 16 16v-64z" fill="#939393"></path><path d="m367.999 144 48-72h-32v-56l-48 80h32z" fill="#fad85d"></path><path d="m290.913 504a58.982 58.982 0 0 1 -58.913-58.914v-37.086h16v37.086a42.961 42.961 0 0 0 42.913 42.914z" fill="#c8cded"></path><path d="m424 336h-32a8 8 0 0 0 -8 8h-8a24.027 24.027 0 0 0 -24 24v4.688l-56 56v-68.688a72.079 72.079 0 0 0 -72-72h-32a8.005 8.005 0 0 1 -8-8v-18.2c.516-.361 1.091-.627 1.594-1l12.805-9.6a104.55 104.55 0 0 0 41.288-75.2h4.313a28.033 28.033 0 0 0 28-28v-42.266a97.744 97.744 0 0 0 -97.735-97.734h-44.531a97.745 97.745 0 0 0 -97.734 97.734v42.266a28.034 28.034 0 0 0 28 28h4.313a104.55 104.55 0 0 0 41.287 75.2l12.8 9.6c.506.38 1.083.647 1.6 1.009v18.191a8.005 8.005 0 0 1 -8 8h-32a72.079 72.079 0 0 0 -72 72v136h16v-136a56.045 56.045 0 0 1 48-55.361v47.361a8 8 0 0 0 8 8h13.437l50.563 36.114v99.886h16v-99.886l50.562-36.114h13.438a8 8 0 0 0 8-8v-47.361a56.044 56.044 0 0 1 48 55.361v88a8 8 0 0 0 13.657 5.656l58.343-58.344v20.688a23.9 23.9 0 0 0 9.6 19.083l-40.343 40.347a42.913 42.913 0 0 1 -73.257-30.344v-37.086h-16v37.086a58.911 58.911 0 0 0 100.57 41.656l46.742-46.742h4.688a8 8 0 0 0 8 8h32a8 8 0 0 0 8-8v-96a8 8 0 0 0 -8-8zm-272 38.109-34.8-69.593 1.829 1.828a46.624 46.624 0 0 0 65.937 0l1.828-1.828zm-65.579-337.687a81.638 81.638 0 0 1 43.313-12.422h44.531a81.74 81.74 0 0 1 81.735 81.734v17.075a27.673 27.673 0 0 0 -12-2.809h-4v-16a24.026 24.026 0 0 0 -24-24 8 8 0 0 0 -7.156 4.422 20.834 20.834 0 0 1 -18.735 11.578h-74.117a20.821 20.821 0 0 1 -14.813-6.133l-7.523-7.523a8 8 0 0 0 -5.656-2.344 24.027 24.027 0 0 0 -24 24v16h-4a27.68 27.68 0 0 0 -12 2.809v-17.075a81.265 81.265 0 0 1 38.421-69.312zm28.779 201.978a88.414 88.414 0 0 1 -35.2-70.4 8 8 0 0 0 -8-8h-12a12 12 0 1 1 0-24h12a8 8 0 0 0 8-8v-24a8.018 8.018 0 0 1 5.2-7.492l4.672 4.672a36.71 36.71 0 0 0 26.12 10.82h74.117a36.732 36.732 0 0 0 29.742-15.008 8 8 0 0 1 4.149 7.008v24a8 8 0 0 0 8 8h12a12 12 0 1 1 0 24h-12a8 8 0 0 0 -8 8 88.413 88.413 0 0 1 -35.2 70.4l-12.808 9.6c-13.735 10.312-34.243 10.312-47.993 0zm36.8 33.6a55.878 55.878 0 0 0 16-2.47v10.47a23.768 23.768 0 0 0 5.529 15.136 30.576 30.576 0 0 1 -43.057 0 23.767 23.767 0 0 0 5.528-15.136v-10.469a55.917 55.917 0 0 0 16 2.469zm-51.351 73.492a8 8 0 0 0 -4.649-1.492h-8v-40h11.054l31.383 62.766zm107.351-1.492a7.992 7.992 0 0 0 -4.648 1.492l-29.789 21.274 31.382-62.766h11.055v40zm168 80a8.005 8.005 0 0 1 -8-8v-48a8.005 8.005 0 0 1 8-8h8v64zm40 8h-16v-80h16z"></path><path d="m336 104h24v40a8 8 0 0 0 5.68 7.656 7.9 7.9 0 0 0 2.32.344 8 8 0 0 0 6.657-3.562l48-72a8 8 0 0 0 -6.657-12.438h-24v-48a8 8 0 0 0 -14.859-4.117l-48 80a8 8 0 0 0 6.859 12.117zm40-59.117v27.117a8 8 0 0 0 8 8h17.055l-25.055 37.578v-21.578a8 8 0 0 0 -8-8h-17.868z"></path><path d="m496 232h-33.576a73.541 73.541 0 0 0 1.576-14.875 57.125 57.125 0 0 0 -88.812-47.531l-7.188 4.789-7.187-4.789a57.126 57.126 0 0 0 -88.813 47.531c0 2.313.169 4.6.381 6.875h-32.381v16h35.7a72.8 72.8 0 0 0 23.139 33.734l64.1 52.454a7.978 7.978 0 0 0 10.125 0l64.1-52.446a72.983 72.983 0 0 0 20-25.742h38.836zm-208-14.875a41.127 41.127 0 0 1 63.938-34.219l11.625 7.75a7.979 7.979 0 0 0 8.875 0l11.625-7.75a41.126 41.126 0 0 1 63.937 34.219 57.263 57.263 0 0 1 -2.037 14.875h-9.682l-13.625-20.438c-2.969-4.453-10.344-4.453-13.313 0l-7.562 11.344-10.352-25.875a8.2 8.2 0 0 0 -7.664-5.031 8 8 0 0 0 -7.352 5.469l-17.093 51.281-7.891-19.719a8 8 0 0 0 -6.6-4.984 7.9 7.9 0 0 0 -7.484 3.515l-9.345 14.016-9.343-14.016a8.005 8.005 0 0 0 -6.657-3.562h-23.566a57.653 57.653 0 0 1 -.434-6.875zm139.039 44.234-59.039 48.305-59.04-48.312a56.935 56.935 0 0 1 -16.133-21.352h14.891l13.625 20.438c2.969 4.453 10.344 4.453 13.313 0l7.562-11.344 10.352 25.875a8 8 0 0 0 7.43 5.031h.235a8 8 0 0 0 7.351-5.469l17.094-51.281 7.891 19.719a8 8 0 0 0 6.6 4.984 7.79 7.79 0 0 0 7.485-3.515l9.344-14.016 9.344 14.016a8 8 0 0 0 6.656 3.562h6.909a57.223 57.223 0 0 1 -11.871 13.359z"></path><path d="m55.999 416h16v80h-16z"></path></g></svg>