<svg xmlns="http://www.w3.org/2000/svg" id="Line" width="512" height="512" viewBox="0 0 64 64"><path d="M47,42V33H43v9a.99943.99943,0,0,1-1,1H33v4h9a.99943.99943,0,0,1,1,1v9h4V48a.99943.99943,0,0,1,1-1h9V43H48A.99943.99943,0,0,1,47,42Z" style="fill:#c4a2fc"></path><path d="M60,27H30a3.00328,3.00328,0,0,0-3,3V60a3.00328,3.00328,0,0,0,3,3H60a3.00328,3.00328,0,0,0,3-3V30A3.00328,3.00328,0,0,0,60,27ZM59,48a.99943.99943,0,0,1-1,1H49v9a.99943.99943,0,0,1-1,1H42a.99943.99943,0,0,1-1-1V49H32a.99974.99974,0,0,1-1-1V42a.99974.99974,0,0,1,1-1h9V32a.99943.99943,0,0,1,1-1h6a.99943.99943,0,0,1,1,1v9h9a.99943.99943,0,0,1,1,1Z" style="fill:#c4a2fc"></path><path d="M38,11a.99943.99943,0,0,0-1,1v1H35V3a2.0026,2.0026,0,0,0-2-2H19a2.00229,2.00229,0,0,0-2,2V13H15V12a.99974.99974,0,0,0-1-1A13.01474,13.01474,0,0,0,1,24v7a2.00229,2.00229,0,0,0,2,2v.88184a.80419.80419,0,0,1-.44727.72363A2.79487,2.79487,0,0,0,1,37.11816V48a3.00328,3.00328,0,0,0,3,3H48a3.00328,3.00328,0,0,0,3-3V24A13.01505,13.01505,0,0,0,38,11ZM19,3H33V6H19ZM17,15a2.00229,2.00229,0,0,0,2-2V8H33v5a2.0026,2.0026,0,0,0,2,2h2v1a1.00067,1.00067,0,0,1-1,1H16a1.001,1.001,0,0,1-1-1V15ZM3,24A11.01525,11.01525,0,0,1,13,13.04492V16a3.00328,3.00328,0,0,0,3,3H36a3.00328,3.00328,0,0,0,3-3V13.04492A11.01525,11.01525,0,0,1,49,24v1H42a1,1,0,0,0,0,2h7v6H42a1,1,0,0,0,0,2h7v6H42a.99943.99943,0,0,0-1,1v7H17V41.91632a11.98285,11.98285,0,1,0-.51477-15.243A1.9876,1.9876,0,0,0,15,26H3ZM3,40H15v5H3Zm0-9V28H15l.00146,3Zm12,2a2.00229,2.00229,0,0,0,2-2V29.6347a10,10,0,1,1,0,8.7306V37.11816a2.79487,2.79487,0,0,0-1.55273-2.51269A.80419.80419,0,0,1,15,33.88184ZM3.44727,36.39453A2.79487,2.79487,0,0,0,5,33.88184V33h8v.88184a2.79487,2.79487,0,0,0,1.55273,2.51269A.80419.80419,0,0,1,15,37.11816V38H3v-.88184A.80419.80419,0,0,1,3.44727,36.39453ZM3,48V47H15v2H4A1.001,1.001,0,0,1,3,48Zm45,1H43V43h6v5A1.00067,1.00067,0,0,1,48,49Z" style="fill:#151a6a"></path><path d="M20,35h5v5a1,1,0,0,0,2,0V35h5a1,1,0,0,0,0-2H27V28a1,1,0,0,0-2,0v5H20a1,1,0,0,0,0,2Z" style="fill:#151a6a"></path></svg>