<svg xmlns="http://www.w3.org/2000/svg" id="Layer_1" viewBox="0 0 512 512"><g clip-rule="evenodd" fill-rule="evenodd"><path d="m431.037 341.219c-3.758-.542-7.552-.825-11.349-.825-43.723 0-79.297 35.58-79.297 79.302 0 26.577 13.283 51.225 35.359 65.978l10.961 7.326h-261.437l10.962-7.326c22.075-14.753 35.363-39.4 35.363-65.978 0-43.72-35.576-79.302-79.297-79.302-3.797 0-7.587.284-11.345.825l-4.91.706.35-4.948c.836-11.809 8.912-21.338 20.457-24.021l106.174-24.672 50.574 67.156c.566.752 1.454 1.192 2.395 1.192.942 0 1.828-.439 2.395-1.192l50.564-67.157 106.157 24.663c11.459 2.786 19.617 12.24 20.483 24.02l.365 4.961zm-237.381-111.755c32.828-20.964 91.849-20.961 124.678 0l3.152 2.012-1.796 3.28c-12.733 23.254-37.09 37.817-63.692 37.817-26.607 0-50.954-14.564-63.696-37.816l-1.797-3.28zm-24.169-80.063c-.8 0-1.599.041-2.396.112l-4.352.384v-18.942c0-18.347 3.969-37.53 14.378-52.917 9.238-13.656 22.644-22.82 39.024-25.341l3.798-.585.736 3.772c3.287 16.839 18.136 29.093 35.323 29.093 17.188 0 32.027-12.255 35.313-29.093l.736-3.772 3.798.585c16.382 2.521 29.79 11.683 39.028 25.341 10.407 15.387 14.374 34.571 14.374 52.917v18.942l-4.352-.384c-.797-.07-1.596-.112-2.396-.112zm237.562 254.644c0 1.655-1.347 3.002-3.002 3.002h-21.787v25.297h21.787c1.655 0 3.002 1.346 3.002 3.002v21.787h25.288v-21.787c0-1.655 1.347-3.002 3.002-3.002h21.792v-25.297h-21.792c-1.655 0-3.002-1.346-3.002-3.002v-21.787h-25.288zm-301.966 48.407.312 3.509 7.041.267.577-3.475c1.359-8.185 1.371-17.234 1.082-25.499-.24-6.88.681-12.968 2.966-19.463 2.269-6.447 7.919-23.918 1.333-29.762-5.553-4.928-18.827-.506-24.76 2.427-.844.417-1.841.412-2.685-.004-5.93-2.933-19.196-7.349-24.747-2.422-6.583 5.842-.933 23.317 1.333 29.762 2.285 6.495 3.21 12.581 2.966 19.461-.293 8.273-.276 17.303 1.077 25.497l.574 3.477 7.044-.264.312-3.511c.168-1.887.192-3.792.126-5.684-.206-5.913.614-12.878 4.925-17.338 1.899-1.964 4.932-3.65 7.739-3.65 2.8 0 5.836 1.687 7.728 3.648 4.311 4.468 5.138 11.421 4.932 17.341-.062 1.891-.042 3.797.125 5.683z" fill="#a4d4ff"></path><path d="m279.238 176.199c0-5.525 4.48-9.999 9.999-9.999s10.004 4.475 10.004 9.999-4.484 9.999-10.004 9.999-9.999-4.475-9.999-9.999zm-46.476 0c0 5.524-4.484 9.999-10.004 9.999-5.529 0-9.999-4.475-9.999-9.999 0-5.525 4.47-9.999 9.999-9.999 5.519 0 10.004 4.475 10.004 9.999zm16.239-127.209c0-3.868 3.129-7.001 6.997-7.001 3.863 0 7.002 3.134 7.002 7.001 0 3.863-3.138 6.997-7.002 6.997-3.868 0-6.997-3.134-6.997-6.997zm204.13 379.354h-17.792c-3.858 0-7.002 3.134-7.002 7.002v17.787h-17.288v-17.787c0-3.868-3.143-7.002-7.002-7.002h-17.787v-17.298h17.787c3.858 0 7.002-3.134 7.002-7.001v-17.787h17.288v17.787c0 3.868 3.143 7.001 7.002 7.001h17.792zm6.997-31.296h-17.787v-17.791c0-3.863-3.134-6.997-7.002-6.997h-31.292c-3.868 0-6.997 3.134-6.997 6.997v17.791h-17.792c-3.873 0-7.002 3.134-7.002 6.997v31.301c0 3.863 3.129 6.997 7.002 6.997h17.792v17.792c0 3.863 3.129 6.997 6.997 6.997h31.292c3.868 0 7.002-3.134 7.002-6.997v-17.792h17.787c3.873 0 7.002-3.134 7.002-6.997v-31.301c0-3.863-3.13-6.997-7.002-6.997zm-40.44 91.951c38.223 0 69.312-31.09 69.312-69.303 0-38.214-31.09-69.303-69.312-69.303-38.209 0-69.298 31.089-69.298 69.303 0 38.209 31.08 69.294 69.289 69.303zm-281.23 0h235.069c-22.37-14.95-37.136-40.43-37.136-69.303 0-45.931 37.367-83.302 83.297-83.302 4.052 0 8.033.306 11.919.866-.729-9.929-7.547-18.022-17.439-20.426l-103.583-24.064-48.999 65.078c-1.317 1.755-3.388 2.786-5.59 2.786-2.197 0-4.268-1.031-5.59-2.786l-49.008-65.078-103.638 24.082c-9.863 2.292-16.662 10.376-17.373 20.408 3.891-.56 7.863-.866 11.914-.866 45.926 0 83.297 37.371 83.297 83.302.001 28.873-14.769 54.353-37.14 69.303zm-115.459-69.304c0-38.214 31.09-69.303 69.303-69.303 38.204 0 69.298 31.089 69.298 69.303 0 38.209-31.08 69.294-69.284 69.303h-.038c-38.199-.009-69.279-31.093-69.279-69.303zm146.488-274.294c-.927 0-1.84.047-2.748.127v-14.573c0-40.707 19.839-69.66 50.01-74.305 3.59 18.394 19.82 32.327 39.249 32.327s35.649-13.933 39.239-32.327c30.181 4.645 50.01 33.597 50.01 74.305v14.573c-.908-.08-1.816-.127-2.748-.127zm3.933 47.597h-3.934c-9.26 0-16.799-7.534-16.799-16.799 0-9.26 7.538-16.799 16.799-16.799h3.934zm82.578-169.997c-14.328 0-25.989 11.656-25.989 25.989 0 14.329 11.66 25.989 25.989 25.989 14.333 0 25.993-11.66 25.993-25.989 0-14.333-11.66-25.989-25.993-25.989zm86.501 169.997h-3.929v-33.598h3.929c9.27 0 16.799 7.538 16.799 16.799 0 9.265-7.529 16.799-16.799 16.799zm-26.318 39.837c-11.651 21.278-34.261 35.738-60.184 35.738-25.927 0-48.528-14.46-60.188-35.738 31.508-20.121 88.859-20.121 120.372 0zm-128.762-32.835c0 6.875 1.031 13.514 2.917 19.782 35.692-21.297 95.621-21.297 131.312 0 1.892-6.268 2.918-12.907 2.918-19.782v-40.6h-137.147zm113.319 82.582-44.74 59.417-44.749-59.417v-13.227c12.898 8.352 28.271 13.223 44.749 13.223 16.484 0 31.842-4.87 44.74-13.223zm144.939 57.986v-1.548c0-17.039-11.599-31.758-28.266-35.804l-102.674-23.852v-21.391c13.194-13.359 21.871-31.183 23.542-50.97h4.221c16.991 0 30.798-13.82 30.798-30.802 0-10.809-5.6-20.328-14.051-25.829v-19.415c0-49.041-25.377-83.706-63.788-88.402-3.092-19.001-19.599-33.551-39.461-33.551s-36.378 14.55-39.47 33.551c-38.411 4.696-63.788 39.362-63.788 88.402v19.415c-8.451 5.496-14.051 15.02-14.051 25.829 0 16.982 13.82 30.802 30.798 30.802h4.23c1.661 19.787 10.343 37.611 23.532 50.97v21.391l-102.66 23.852c-16.648 3.868-28.28 18.592-28.28 35.804v1.548c-33.24 10.945-57.309 42.269-57.309 79.127 0 45.865 37.249 83.184 83.09 83.302h.188.023.014 327.363.009c45.94 0 83.311-37.367 83.311-83.302.002-36.858-24.081-68.182-57.321-79.127zm-363.991 86.082c-4.32 4.475-6.357 11.289-6.047 20.257.071 1.986.019 3.708-.113 5.19-.847-5.129-1.435-13.029-1.026-24.704.269-7.449-.72-13.905-3.19-20.93-7.049-20.041-3.27-24.709-2.452-25.443 3.28-2.904 14.098-.057 20.319 3.016 1.962.974 4.273.974 6.23.005 6.23-3.078 17.053-5.924 20.333-3.021.819.734 4.602 5.402-2.451 25.443-2.47 7.025-3.449 13.481-3.19 20.93.409 11.674-.179 19.575-1.031 24.704-.132-1.482-.179-3.205-.108-5.19.311-8.969-1.731-15.782-6.051-20.257-4.47-4.635-9.618-4.87-10.606-4.87-.994 0-6.132.235-10.617 4.87zm10.753 9.209c.023-.009.038-.019.061-.028.018.009-.01.019-.061.028zm-.339-.028c.019.009.037.019.056.028-.047-.009-.066-.019-.056-.028zm.202.094c-1.331.753-2.903 3.882-2.673 10.503.772 22.342-10.103 26.341-12.281 26.92-1.228.32-2.508.306-3.727-.047-8.771-2.536-11.199-13.368-12.262-21.288-1.139-8.461-1.092-18.332-.852-25.118.202-5.694-.518-10.413-2.409-15.787-7.087-20.163-6.597-33.438 1.501-40.59 9.67-8.536 25.768-3.303 32.703-.419 6.927-2.884 23.029-8.117 32.699.419 8.098 7.152 8.588 20.427 1.496 40.59-1.887 5.374-2.607 10.093-2.409 15.787.24 6.786.292 16.658-.847 25.118-1.064 7.919-3.492 18.751-12.263 21.288-.63.183-1.289.277-1.939.277-.602 0-1.2-.075-1.784-.23-2.188-.579-13.058-4.578-12.286-26.92.232-6.621-1.34-9.75-2.667-10.503z" fill="#1f4571"></path></g></svg>