<svg xmlns="http://www.w3.org/2000/svg" id="_x33_0" height="512" viewBox="0 0 62 62" width="512"><g><g><g><path d="m60 31h-18c-.48 0-.89.34-.98.8-.01.06-.02.13-.02.2v21 .19c.1 4.33 3.64 7.81 8 7.81h4c4.42 0 8-3.58 8-8v-21c0-.55-.45-1-1-1z" fill="#ccd1d9"></path></g><g><path d="m45 39h12v12h-12z" fill="#69d6f4"></path></g><g><path d="m57 15c0 3.31-2.69 6-6 6s-6-2.69-6-6c0-5 6-10 6-10s6 5 6 10z" fill="#ff826e"></path></g><g><path d="m53 31v2c0 1.1-.9 2-2 2-.55 0-1.05-.22-1.41-.59-.37-.36-.59-.86-.59-1.41v-2-6h4z" fill="#aab2bd"></path></g><g><path d="m41 54.03v6.97h-7l.19-.38c.53-1.06.81-2.24.81-3.44 0-1.86-.68-3.66-1.9-5.06 1.19-1.41 1.9-3.23 1.9-5.21 0-1.26-.25-2.51-.73-3.68l-1.58-3.85c.07.04.14.08.21.13 1.28.79 2.45 1.75 3.47 2.84 2.7 2.87 4.41 6.66 4.61 10.84.01.28.02.56.02.84z" fill="#f0d0b4"></path></g><g><path d="m32.85 22.1-.85-5.1h3c1.93 0 3.55 1.37 3.92 3.2.05.26.08.52.08.8 0 1.1-.45 2.1-1.17 2.83-.73.72-1.73 1.17-2.83 1.17h-2.06-.01c.05-.37.07-.76.07-1.14 0-.57-.05-1.14-.14-1.71z" fill="#f0d0b4"></path></g><g><path d="m34.27 43.23c.48 1.17.73 2.42.73 3.68 0 1.98-.71 3.8-1.9 5.21-.15.18-.31.35-.47.51-1.46 1.47-3.49 2.37-5.72 2.37-1.26 0-2.49-.29-3.62-.85l-2.29-1.15-2.29 1.15c-1.13.56-2.36.85-3.62.85-2.23 0-4.26-.9-5.72-2.37-.16-.16-.32-.33-.47-.51-1.19-1.41-1.9-3.23-1.9-5.21 0-1.26.25-2.51.73-3.68l1.58-3.85c1.72-1.03 3.64-1.77 5.69-2.14v1.76c0 3.31 2.69 6 6 6 1.66 0 3.16-.67 4.24-1.76 1.09-1.08 1.76-2.58 1.76-4.24v-1.76c2.05.37 3.97 1.11 5.69 2.14z" fill="#fcd770"></path></g><g><path d="m35 57.18c0 1.2-.28 2.38-.81 3.44l-.19.38h-26l-.19-.38c-.53-1.06-.81-2.24-.81-3.44 0-1.86.68-3.66 1.9-5.06.15.18.31.35.47.51 1.46 1.47 3.49 2.37 5.72 2.37 1.26 0 2.49-.29 3.62-.85l2.29-1.15 2.29 1.15c1.13.56 2.36.85 3.62.85 2.23 0 4.26-.9 5.72-2.37.16-.16.32-.33.47-.51 1.22 1.4 1.9 3.2 1.9 5.06z" fill="#fcd770"></path></g><g><path d="m32.86 22.15c.09.57.14 1.14.14 1.71 0 .38-.02.77-.07 1.14-.21 1.96-.96 3.78-2.13 5.27-1.4 1.79-3.37 3.12-5.69 3.7l-.11.03v3c.68.04 1.35.12 2 .24v1.76c0 1.66-.67 3.16-1.76 4.24-1.08 1.09-2.58 1.76-4.24 1.76-3.31 0-6-2.69-6-6v-1.76c.65-.12 1.32-.2 2-.24v-3l-.11-.03c-4.27-1.07-7.36-4.68-7.82-8.97-.05-.37-.07-.76-.07-1.14 0-.57.05-1.14.14-1.71l.01-.05.85-5.1 1-6c0 2.21 1.79 4 4 4h12c1.1 0 2.1-.45 2.83-1.17.72-.73 1.17-1.73 1.17-2.83l1 6 .85 5.1z" fill="#f0d0b4"></path></g><g><path d="m40.7 23.54-.74-3.56-1.64-7.84c-1.35-6.49-7.07-11.14-13.7-11.14h-7.24c-6.63 0-12.35 4.65-13.7 11.14l-1.64 7.84-.74 3.56c-.2.97-.3 1.96-.3 2.95 0 2.86.82 5.52 2.25 7.77 1.43 2.24 3.45 4.06 5.85 5.25.07-.05.14-.09.21-.13 1.72-1.03 3.64-1.77 5.69-2.14.65-.12 1.32-.2 2-.24v-3l-.11-.03c-4.27-1.07-7.36-4.68-7.82-8.97h-.01-2.06c-1.1 0-2.1-.45-2.83-1.17-.72-.73-1.17-1.73-1.17-2.83 0-.28.03-.54.08-.8.37-1.83 1.99-3.2 3.92-3.2h3l1-6c0 2.21 1.79 4 4 4h12c1.1 0 2.1-.45 2.83-1.17.72-.73 1.17-1.73 1.17-2.83l1 6h3c1.93 0 3.55 1.37 3.92 3.2.05.26.08.52.08.8 0 1.1-.45 2.1-1.17 2.83-.73.72-1.73 1.17-2.83 1.17h-2.06-.01c-.21 1.96-.96 3.78-2.13 5.27-1.4 1.79-3.37 3.12-5.69 3.7l-.11.03v3c.68.04 1.35.12 2 .24 2.05.37 3.97 1.11 5.69 2.14.07.04.14.08.21.13 3.3-1.63 5.89-4.47 7.19-7.94.59-1.58.91-3.29.91-5.08 0-.99-.1-1.98-.3-2.95z" fill="#b27946"></path></g><g><path d="m9.15 22.1-.01.05c-.09.57-.14 1.14-.14 1.71 0 .38.02.77.07 1.14h-.01-2.06c-1.1 0-2.1-.45-2.83-1.17-.72-.73-1.17-1.73-1.17-2.83 0-.28.03-.54.08-.8.37-1.83 1.99-3.2 3.92-3.2h3z" fill="#f0d0b4"></path></g><g><path d="m9.31 39.38-1.58 3.85c-.48 1.17-.73 2.42-.73 3.68 0 1.98.71 3.8 1.9 5.21-1.22 1.4-1.9 3.2-1.9 5.06 0 1.2.28 2.38.81 3.44l.19.38h-7v-6.97c0-6.11 3.22-11.51 8.1-14.52.07-.05.14-.09.21-.13z" fill="#f0d0b4"></path></g></g><g><circle cx="17" cy="19" r="1"></circle><circle cx="25" cy="19" r="1"></circle><path d="m22.447 22.105-1.134-.567c.451-1.121.687-2.331.687-3.538h-2c0 1.153-.272 2.309-.789 3.342l-.553 1.105 2.895 1.447z"></path><path d="m50 18h2v-2h2v-2h-2v-2h-2v2h-2v2h2z"></path><path d="m51 22c3.859 0 7-3.14 7-7 0-5.406-6.101-10.552-6.359-10.768l-.641-.534-.641.534c-.258.216-6.359 5.362-6.359 10.768 0 3.86 3.141 7 7 7zm0-15.652c1.479 1.399 5 5.104 5 8.652 0 2.757-2.243 5-5 5s-5-2.243-5-5c0-3.548 3.521-7.253 5-8.652z"></path><path d="m60 30h-6v-6h-6v6h-6c-.141 0-.278.016-.411.043.266-1.146.411-2.333.411-3.548 0-1.058-.109-2.122-.326-3.163l-2.373-11.392c-1.442-6.918-7.617-11.94-14.685-11.94h-7.232c-7.068 0-13.243 5.022-14.685 11.94l-2.374 11.393c-.216 1.04-.325 2.104-.325 3.162 0 5.398 2.737 10.281 7.232 13.107-4.396 3.311-7.232 8.562-7.232 14.429v7.969h42v-3.355c1.651 2.043 4.174 3.355 7 3.355h4c4.963 0 9-4.037 9-9v-21c0-1.103-.897-2-2-2zm-10-4h2v7c0 .552-.448 1-1 1s-1-.448-1-1zm-16.65 17.612c.431 1.054.65 2.163.65 3.298 0 3.909-3.181 7.09-7.09 7.09-1.097 0-2.192-.259-3.171-.749l-2.739-1.369-2.74 1.369c-.978.49-2.073.749-3.17.749-3.909 0-7.09-3.181-7.09-7.09 0-1.135.219-2.244.65-3.297l1.444-3.511c1.212-.697 2.519-1.25 3.906-1.613v.511c0 3.859 3.141 7 7 7s7-3.141 7-7v-.51c1.387.363 2.694.916 3.906 1.613zm.019 16.388h-24.738c-.408-.88-.631-1.847-.631-2.815 0-1.257.362-2.475 1.019-3.529 1.611 1.451 3.736 2.344 6.071 2.344 1.405 0 2.812-.332 4.065-.96l1.845-.922 1.844.922c1.255.628 2.661.96 4.066.96 2.335 0 4.46-.893 6.071-2.345.657 1.055 1.019 2.272 1.019 3.53 0 .968-.223 1.935-.631 2.815zm-16.232-26.996c-4.202-1.051-7.137-4.81-7.137-9.141 0-.515.043-1.037.128-1.549l1.304-7.821c.908.927 2.17 1.507 3.568 1.507h12c1.398 0 2.66-.58 3.568-1.508l1.304 7.82c.085.514.128 1.036.128 1.551 0 4.331-2.935 8.09-7.137 9.141l-.863.215v4.721l.938.059c.359.022.71.073 1.063.119v.882c0 .342-.035.677-.101 1h-3.9v2h2.974c-.914 1.207-2.348 2-3.974 2s-3.061-.793-3.974-2h2.974v-2h-3.899c-.066-.323-.101-.658-.101-1v-.883c.352-.046.703-.096 1.063-.119l.937-.059v-4.721zm-8.719-12.594-1.863-1.242-1.109 1.664 2.635 1.757c-.048.424-.081.85-.081 1.274 0 .046.005.091.006.137h-1.006c-1.654 0-3-1.346-3-3s1.346-3 3-3h1.82zm31.148 2.609.15.721c.188.906.284 1.833.284 2.755 0 5.013-2.71 9.517-7.097 11.882-2.077-1.195-4.405-2.005-6.903-2.292v-1.324c4.055-1.271 7.016-4.665 7.792-8.761h1.208c2.037 0 3.787-1.229 4.566-2.981zm-4.566.981h-1.006c.001-.046.006-.091.006-.137 0-.423-.033-.849-.08-1.274l2.635-1.757-1.109-1.664-1.863 1.242-.402-2.41h1.819c1.654 0 3 1.346 3 3s-1.346 3-3 3zm5 10.129v11.673c-1.255-2.439-3.051-4.557-5.232-6.2 2.209-1.388 3.99-3.272 5.232-5.473zm-22.616-32.129h7.232c6.125 0 11.478 4.352 12.728 10.349l1.04 4.994c-.893-.827-2.076-1.343-3.384-1.343h-2.153l-.861-5.165h-.003c-.088-2.679-2.282-4.835-4.983-4.835-1.654 0-3 1.346-3 3s1.346 3 3 3h1v-2h-1c-.552 0-1-.449-1-1s.448-1 1-1c1.654 0 3 1.346 3 3s-1.346 3-3 3h-12c-1.654 0-3-1.346-3-3s1.346-3 3-3h1v-2h-1c-2.701 0-4.895 2.156-4.983 4.836h-.003l-.861 5.164h-2.153c-1.309 0-2.492.517-3.384 1.343l1.04-4.994c1.25-5.997 6.603-10.349 12.728-10.349zm-15.384 24.495c0-.922.096-1.849.283-2.754l.151-.723c.778 1.753 2.528 2.982 4.566 2.982h1.208c.776 4.096 3.737 7.49 7.792 8.761v1.324c-2.498.287-4.827 1.097-6.903 2.292-4.387-2.365-7.097-6.869-7.097-11.882zm0 27.536c0-4.529 1.907-8.64 4.964-11.575l-.164.398c-.53 1.295-.8 2.66-.8 4.056 0 1.931.61 3.721 1.642 5.195-1.063 1.473-1.642 3.248-1.642 5.08 0 .955.168 1.909.478 2.815h-4.478zm38 5.969h-4.478c.31-.906.478-1.86.478-2.815 0-1.831-.579-3.606-1.642-5.08 1.032-1.474 1.642-3.263 1.642-5.195 0-1.396-.27-2.761-.801-4.057l-.163-.397c3.057 2.936 4.964 7.046 4.964 11.575zm20-7c0 3.859-3.141 7-7 7h-4c-3.859 0-7-3.141-7-7v-21h6v1c0 1.654 1.346 3 3 3s3-1.346 3-3v-1h6z"></path><circle cx="51" cy="55" r="1"></circle><circle cx="55" cy="55" r="1"></circle><circle cx="47" cy="55" r="1"></circle><path d="m44 52h14v-14h-14zm2-2v-4h1.382l1.618 3.236 2-4 .382.764h4.618v4zm10-10v4h-3.382l-1.618-3.236-2 4-.382-.764h-2.618v-4z"></path><path d="m26.123 27.51c.562.303 1.195.49 1.877.49v-2c-1.103 0-2-.897-2-2h-2c0 .795.24 1.533.641 2.157-.854 1.155-2.191 1.843-3.641 1.843s-2.787-.688-3.641-1.843c.401-.624.641-1.362.641-2.157h-2c0 1.103-.897 2-2 2v2c.682 0 1.315-.188 1.877-.49 1.235 1.565 3.105 2.49 5.123 2.49s3.888-.925 5.123-2.49z"></path></g></g></svg>