<svg xmlns="http://www.w3.org/2000/svg" height="512" viewBox="0 0 512 512" width="512"><g id="Layer_2"><g><path d="m339.717 142.687-74.371-13.294c-8.827-1.578-14.703-10.012-13.125-18.839l18.417-103.03h-47.521l-20.456 114.478c-4.129 23.109 8.726 45.896 30.64 54.314l3.331 1.28c18.097 6.951 31.057 23.315 33.188 42.584 2.349 21.241-7.811 60.675-21.775 78.71-17.008 21.967-55.606 18.568-91.604 11.468-6.849-1.351-95.133-17.537-95.133-17.537-27.634-6.047-53.782 14.997-53.782 43.286v168.37h45.809v-118.963l17.417 10.271c3.77 12.624 37.417 108.691 188.43 108.691 102.359 0 168.501-76.709 183.077-158.252 17.725-99.173-2.691-185.689-102.542-203.537z" fill="#e15f4f"></path><g fill="#ca4336"><path d="m233.299 176.317 3.331 1.28c18.097 6.951 31.057 23.315 33.188 42.584 2.349 21.241-7.811 60.675-21.775 78.71-7.862 10.154-20.343 14.881-35.042 16.335 24.447 1.92 46.575-1.125 58.351-16.335 13.964-18.035 24.123-57.469 21.775-78.71-2.131-19.268-15.091-35.633-33.188-42.584l-3.331-1.28c-21.914-8.417-34.769-31.205-30.64-54.314l20.456-114.479h-23.309l-20.456 114.479c-4.129 23.109 8.726 45.896 30.64 54.314z"></path><path d="m63.767 293.272c-1.578-.289-2.462-.451-2.462-.451-27.634-6.047-53.782 14.997-53.782 43.286v168.37h23.309v-168.37c0-20.922 14.307-37.867 32.935-42.835z"></path></g><path d="m259.181 474.476c-58.676 0-103.339-15.776-133.607-46.044-21.782-21.782-26.512-49.507-23.15-66.878 3.082-15.926 23.269-22.624 39.426-22.624 2.934 0 45.711 6.813 60.201 6.812 31.625-.001 55.08-9.585 69.714-28.485 18.166-23.464 34.101-82.761 26.728-107.682-6.302-21.302 14.073-41.265 35.941-37.356l.005.001c36.667 6.555 60.552 24.038 73.02 53.449 11.906 28.086 13.728 67.948 5.267 115.277-6.422 35.932-24.061 69.015-49.666 93.156-28.018 26.412-63.939 40.374-103.879 40.374z" fill="#f8d250"></path><g fill="#f8ae46"><path d="m225.359 345.742c31.624-.001 55.08-9.585 69.714-28.485 18.166-23.464 34.101-82.761 26.728-107.682-4.661-15.754 5.275-30.765 19.61-35.939-2.271-.517-4.594-.991-6.972-1.416l-.005-.001c-21.868-3.909-42.243 16.055-35.941 37.356 7.373 24.921-8.562 84.218-26.728 107.682-12.558 16.22-31.633 25.557-56.773 27.885 4.122.372 7.719.6 10.367.6z"></path><path d="m148.882 428.432c-21.782-21.782-26.512-49.507-23.15-66.878 2.301-11.887 14.129-18.63 26.698-21.288-5.699-.787-9.748-1.336-10.581-1.336-16.157 0-36.343 6.698-39.426 22.624-3.362 17.37 1.368 45.096 23.15 66.878 30.267 30.267 74.931 46.044 133.607 46.044 3.32 0 6.609-.106 9.872-.298-52.094-2.257-92.258-17.834-120.17-45.746z"></path></g><path d="m295.764 259.619h120.516c-1.681-12.656-4.621-24.04-8.823-33.952-12.468-29.411-36.353-46.894-73.02-53.449l-.005-.001c-21.868-3.909-42.243 16.055-35.941 37.356 3.432 11.597 1.812 30.638-2.727 50.046z" fill="#fff"></path><path d="m321.801 209.574c-4.661-15.754 5.275-30.765 19.61-35.939-2.271-.517-4.594-.991-6.972-1.416l-.005-.001c-21.868-3.909-42.243 16.055-35.941 37.356 3.431 11.596 1.811 30.636-2.728 50.045h23.309c4.538-19.408 6.158-38.449 2.727-50.045z" fill="#cdcdc6"></path><g><circle cx="409.658" cy="102.342" fill="#fff" r="94.818"></circle><path d="m338.148 102.342c0-48.42 36.296-88.36 83.164-94.105-3.82-.468-7.708-.714-11.654-.714-52.367 0-94.818 42.452-94.818 94.818 0 52.367 42.452 94.818 94.818 94.818 3.946 0 7.835-.245 11.654-.714-46.868-5.743-83.164-45.683-83.164-94.103z" fill="#cdcdc6"></path><path d="m460.808 82.499h-31.307v-31.307h-39.686v31.307h-31.307v39.686h31.307v31.307h39.686v-31.307h31.307z" fill="#68c0e0"></path><g><path d="m509.476 102.342c0-55.04-44.778-99.818-99.817-99.818-55.04 0-99.818 44.778-99.818 99.818 0 10.743 1.713 21.092 4.868 30.796l-48.482-8.666c-6.099-1.091-10.174-6.939-9.084-13.037l18.417-103.03c.261-1.457-.138-2.954-1.088-4.089-.95-1.136-2.354-1.791-3.834-1.791h-47.521c-2.422 0-4.496 1.736-4.922 4.12l-20.456 114.479c-4.543 25.425 9.659 50.6 33.768 59.859l3.332 1.281c16.593 6.372 28.093 21.111 30.011 38.465 2.315 20.929-8.161 58.829-20.758 75.1-15.907 20.545-54.68 15.935-86.683 9.623-6.76-1.333-90.5-16.688-95.12-17.534-14.629-3.174-29.703.386-41.369 9.774-11.691 9.408-18.396 23.41-18.396 38.414v168.37c0 2.762 2.238 5 5 5h45.809c2.762 0 5-2.238 5-5v-110.21l8.224 4.85c3.179 9.698 13.484 35.157 39.804 59.425 36.657 33.798 88.073 50.936 152.82 50.936 49.032 0 93.255-17.259 127.888-49.909 31.028-29.254 52.377-69.194 60.111-112.463 9.796-54.802 7.272-100.255-7.497-135.098-1.879-4.432-3.963-8.666-6.232-12.72 43.589-10.7 76.025-50.103 76.025-96.945zm-79 113.568c14 33.026 16.309 76.575 6.86 129.435-7.359 41.172-27.648 79.153-57.128 106.946-32.742 30.869-74.593 47.186-121.027 47.186-62.155 0-111.29-16.246-146.042-48.288-27.09-24.978-36.071-51.726-37.597-56.834-.361-1.208-1.165-2.235-2.251-2.876l-17.418-10.271c-.783-.462-1.661-.693-2.54-.693-.855 0-1.711.22-2.48.658-1.558.891-2.52 2.547-2.52 4.342v113.963h-35.809v-163.37c0-11.962 5.345-23.124 14.663-30.624 9.318-7.499 21.366-10.336 33.049-7.776.056.012.111.023.168.033.882.162 88.33 16.195 95.067 17.523 34.826 6.871 77.267 11.563 96.524-13.312 14.085-18.192 25.374-58.968 22.791-82.321-2.331-21.087-16.265-38.981-36.363-46.7l-3.332-1.281c-19.642-7.544-31.211-28.053-27.511-48.766l19.72-110.358h37.363l-17.366 97.15c-2.06 11.526 5.642 22.58 17.168 24.641l54.522 9.746c3.859 8.354 8.839 16.086 14.747 23.006-12.021-1.599-24.372 2.954-32.578 12.124-8.057 9.002-10.775 20.594-7.46 31.802 6.561 22.172-7.956 80.042-25.886 103.202-13.638 17.613-35.763 26.545-65.761 26.546-9.65.001-33.226-3.257-47.312-5.204-9.28-1.282-11.759-1.607-12.89-1.607-18.867 0-40.788 8.347-44.335 26.674-3.504 18.104.816 47.657 24.524 71.363 31.522 31.524 77.664 47.509 137.142 47.509 41.239 0 78.346-14.433 107.308-41.737 26.381-24.872 44.549-58.936 51.158-95.914 8.632-48.286 6.701-89.127-5.585-118.108-3.512-8.285-7.908-15.636-13.149-22.136 3.531.38 7.115.58 10.746.58 4.532 0 8.993-.31 13.367-.897 2.771 4.605 5.263 9.48 7.453 14.644zm-48.776-17.741c9.105 7.822 16.133 17.604 21.154 29.449 3.399 8.018 5.937 17.059 7.625 27.001h-108.506c3.931-19.287 4.449-35.867 1.314-46.464-2.311-7.809-.371-15.935 5.321-22.296 6.271-7.007 15.829-10.354 24.85-8.737.033.006.067.013.101.019 4.894.875 9.532 1.965 13.948 3.249 10.013 7.99 21.59 14.096 34.193 17.779zm26.103 141.895c-6.234 34.883-23.343 66.986-48.174 90.398-27.072 25.522-61.807 39.013-100.448 39.013-56.729 0-100.491-14.999-130.071-44.579-19.593-19.593-25.056-45.454-21.776-62.393 1.786-9.23 14.216-18.574 34.431-18.575.961.044 6.373.791 11.606 1.515 15.269 2.11 38.343 5.299 48.681 5.298 33.252-.001 58.037-10.237 73.667-30.425 9.112-11.769 18.021-32.373 23.832-55.117.05-.195.093-.386.142-.58h112.162c2.329 21.739.997 47.199-4.052 75.445zm1.855-147.904c-49.526 0-89.818-40.292-89.818-89.818s40.292-89.818 89.818-89.818c49.525 0 89.817 40.292 89.817 89.818s-40.291 89.818-89.817 89.818z"></path><path d="m460.808 77.499h-26.307v-26.308c0-2.762-2.238-5-5-5h-39.687c-2.762 0-5 2.238-5 5v26.308h-26.307c-2.762 0-5 2.238-5 5v39.687c0 2.762 2.238 5 5 5h26.307v26.307c0 2.762 2.238 5 5 5h39.687c2.762 0 5-2.238 5-5v-26.307h26.307c2.762 0 5-2.238 5-5v-39.687c0-2.762-2.239-5-5-5zm-5 39.687h-26.307c-2.762 0-5 2.238-5 5v26.307h-29.687v-26.307c0-2.762-2.238-5-5-5h-26.307v-29.687h26.307c2.762 0 5-2.238 5-5v-26.308h29.687v26.308c0 2.762 2.238 5 5 5h26.307z"></path></g></g></g></g></svg>