<svg xmlns="http://www.w3.org/2000/svg" id="Line" height="512" viewBox="0 0 496.055 496.055" width="512"><g><g><path d="m272 64.055c0-11.645-6.338-22.236-16.229-27.844-1.906-15.839-15.427-28.156-31.771-28.156-4.47 0-8.799.906-12.797 2.656-7.334-6.839-16.93-10.656-27.203-10.656s-19.869 3.816-27.203 10.656c-3.999-1.75-8.327-2.656-12.797-2.656-16.344 0-29.865 12.317-31.771 28.156-9.891 5.608-16.229 16.2-16.229 27.844 0 11.706 6.408 22.285 16.267 27.864-.178 1.365-.267 2.746-.267 4.136 0 17.645 14.355 32 32 32 5.023 0 10.031-1.197 14.486-3.461l.699-.339c-4.49-5.509-7.185-12.539-7.185-20.2v-32c0-8.837 7.163-16 16-16h32c8.837 0 16 7.163 16 16v32c0 7.676-2.705 14.719-7.211 20.233l.878.384c4.417 2.214 9.367 3.384 14.333 3.384 17.645 0 32-14.355 32-32 0-1.391-.089-2.771-.267-4.136 9.859-5.579 16.267-16.159 16.267-27.865z" fill="#f0bc5e"></path></g><path d="m49.477 328.055h62.251c5.253-2.903 10.135-6.55 14.497-10.912l17.775-17.774v-3.313h-8c-4.903-9.806-14.925-16-25.888-16h-6.112c0 8.837-7.163 16-16 16-8.837 0-16-7.163-16-16h-24c13.255 0 24-10.745 24-24v-16c0-4.418 3.582-8 8-8 0-13.233-10.767-24-24-24-22.056 0-40 17.944-40 40v23.432c0 24.336 13.539 45.565 33.477 56.567z" fill="#f0bc5e"></path><g><path d="m470.03 224.055c-11.938 0-22.298 8.089-25.194 19.671l-3.082 12.329h-49.754l-4.8-6.4c-4.508-6.011-11.686-9.6-19.2-9.6h-64v-8c0-13.234-10.766-24-24-24h-8v-1.754l32-8v-30.246c0-22.056-17.944-40-40-40h-8v32.862c-10.172-10.394-24.342-16.862-40-16.862h-8v-8.022c9.709-7.305 16-18.92 16-31.978v-32c0-13.234-10.766-24-24-24h-32c-13.234 0-24 10.766-24 24v32c0 13.058 6.291 24.673 16 31.978v8.022h-8c-30.878 0-56 25.122-56 56v24h-16c-8.822 0-16 7.178-16 16v16c0 8.822-7.178 16-16 16v16h17.371c3.302 9.313 12.199 16 22.629 16 10.428 0 19.323-6.685 22.627-15.994 7.777.186 14.724 4.584 18.218 11.571l2.211 4.422h28.944v16h-136c-13.234 0-24 10.766-24 24v16c0 13.234 10.766 24 24 24h8v96c0 8.822 7.178 16 16 16h16c8.822 0 16-7.178 16-16v-96h48v33.58c0 2.003-.78 3.887-2.197 5.304l-6.92 6.92c-4.439 4.438-6.883 10.34-6.883 16.617 0 5.784 2.084 11.183 5.71 15.366-3.595 5.174-5.71 11.45-5.71 18.213 0 8.822 7.178 16 16 16h48c2.916 0 5.643-.797 8-2.165 2.357 1.368 5.084 2.165 8 2.165h48c8.822 0 16-7.178 16-16 0-6.764-2.115-13.04-5.71-18.213 3.626-4.184 5.71-9.583 5.71-15.366 0-6.277-2.444-12.179-6.883-16.617l-6.919-6.919c-1.417-1.417-2.197-3.301-2.197-5.304v-33.58h176v96c0 8.822 7.178 16 16 16h16c8.822 0 16-7.178 16-16v-96h8c13.234 0 24-10.766 24-24v-16c0-6.435-2.55-12.281-6.687-16.595 4.154-4.605 6.687-10.699 6.687-17.374v-60.061c-.001-14.32-11.651-25.97-25.971-25.97zm0 16c5.498 0 9.97 4.472 9.97 9.97v8.023c-3.072-1.282-6.439-1.993-9.97-1.993-4.536 0-8.841 1.173-12.598 3.256l2.926-11.705c1.112-4.445 5.089-7.551 9.672-7.551zm-23.964 32c-.49 1.18-.912 2.4-1.23 3.671l-3.082 12.329h-25.754l-12-16zm-71.666-12.8 39.836 53.116c1.137 1.516 1.764 3.395 1.764 5.291 0 3.361-1.868 6.384-4.875 7.887l-12.646 6.323c-5.475 2.737-11.604 4.184-17.725 4.184h-14.333c-7.851 0-15.453-2.302-21.985-6.657-9.169-6.112-19.84-9.343-30.86-9.343h-41.306c-6.995 0-13.769 2.051-19.588 5.931l-10.238 6.825c-3.183 2.122-6.888 3.244-10.713 3.244h-4.417c-5.159 0-10.009-2.009-13.657-5.657-6.67-6.67-15.538-10.343-24.97-10.343h-12.687v-56c0-4.411 3.589-8 8-8h8v48h128v-48h48c2.505-.001 4.897 1.196 6.4 3.199zm-70.4-3.2v32h-16v-16h-16v16h-16.962c-2.301-9.58-8.669-17.76-17.771-22.31l-1.689-.845-7.157 14.31 1.69.845c3.554 1.777 6.315 4.604 8.008 8h-30.119v-32zm-24-32c4.411 0 8 3.589 8 8v8h-16v-16zm-8-78.628c9.313 3.302 16 12.199 16 22.629v17.754l-16 4zm-88-17.372c-13.234 0-24-10.766-24-24v-8h48v8c0 13.234-10.766 24-24 24zm-16-64h32c4.411 0 8 3.589 8 8v8h-48v-8c0-4.411 3.589-8 8-8zm16 80c2.739 0 5.414-.278 8-.805v8.805c0 4.411-3.589 8-8 8s-8-3.589-8-8v-8.805c2.586.527 5.261.805 8 .805zm-32 16h9.376c3.302 9.311 12.195 16 22.624 16s19.321-6.689 22.624-16h9.376c22.056 0 40 17.944 40 40v40h-16v-48h-16v48h-40c-10.429 0-19.322 6.689-22.624 16h-17.376v-64h-16v40.023c-4.653-3.501-10.092-6.005-16-7.21v-24.813c0-22.056 17.944-40 40-40zm-11.446 128c-6.831-9.98-18.089-16-30.443-16h-14.111v8c0 4.411-3.589 8-8 8s-8-3.589-8-8v-8h-4.305c2.732-4.711 4.305-10.173 4.305-16v-16h24c13.234 0 24 10.766 24 24v8h32v16zm-76.554 192h-16v-96h16zm66.197-38.883 6.92-6.92c4.438-4.439 6.883-10.34 6.883-16.617v-33.58h32v68.305c-4.711-2.732-10.173-4.305-16-4.305h-16c-5.087 0-9.898 1.199-14.173 3.32-1.157-1.335-1.827-3.054-1.827-4.9 0-2.003.78-3.886 2.197-5.303zm-2.197 38.883c0-8.822 7.178-16 16-16h16c8.822 0 16 7.178 16 16zm112 0h-48c0-8.822 7.178-16 16-16h16c8.822 0 16 7.178 16.01 16 0 0-.003 0-.01 0zm-9.117-45.803 6.92 6.92c1.417 1.417 2.197 3.3 2.197 5.304 0 1.846-.669 3.565-1.827 4.9-4.275-2.121-9.086-3.32-14.173-3.32h-16c-5.827 0-11.289 1.573-16 4.305v-68.305h32v33.58c0 6.275 2.444 12.177 6.883 16.616zm217.117 45.803h-16v-96h16zm32-120c0 4.411-3.589 8-8 8h-448c-4.411 0-8-3.589-8-8v-16c0-4.411 3.589-8 8-8h164.687c5.159 0 10.009 2.009 13.657 5.657 6.67 6.67 15.538 10.343 24.97 10.343h4.417c6.995 0 13.769-2.051 19.588-5.931l10.238-6.825c3.183-2.122 6.888-3.244 10.713-3.244h41.308c7.851 0 15.453 2.302 21.985 6.657 9.169 6.112 19.84 9.343 30.86 9.343h14.333c8.592 0 17.195-2.031 24.88-5.874l12.646-6.323c2.061-1.03 3.931-2.314 5.582-3.804h48.136c4.411 0 8 3.589 8 8zm0-49.969c0 5.498-4.472 9.97-9.97 9.97h-38.144c.075-.79.113-1.588.113-2.394 0-4.815-1.447-9.584-4.08-13.606h26.326l6.112-24.448c1.111-4.446 5.089-7.552 9.672-7.552 5.498 0 9.97 4.472 9.97 9.97v28.06z"></path><path d="m354.064 141.991c24.773 24.774 51.621 44.672 75.596 56.029 15.589 7.384 27.508 10.09 36.608 10.09 10.693 0 17.493-3.738 21.771-8.016 7.918-7.918 13.986-24.474-2.075-58.379-5.321-11.232-12.536-23.097-21.23-35.082l24.235-24.235c4.533-4.533 7.03-10.56 7.03-16.971 0-36.046-29.326-65.373-65.373-65.373-6.411 0-12.438 2.497-16.971 7.03l-24.233 24.236c-11.985-8.693-23.849-15.909-35.082-21.23-33.905-16.06-50.462-9.993-58.38-2.074-7.918 7.918-13.986 24.474 2.075 58.379 11.357 23.975 31.255 50.823 56.029 75.596zm-18.064-53.936c0-4.411 3.589-8 8-8s8 3.589 8 8-3.589 8-8 8-8-3.588-8-8zm-13.595-10.464c-5.249-8.468-9.332-16.358-12.302-23.469 7.361 3.084 15.249 7.253 23.419 12.345-4.834 2.357-8.764 6.288-11.117 11.124zm25.368 34.165c10.205-1.618 18.287-9.691 19.922-19.891 6.376 5.485 12.721 11.36 18.928 17.567 6.208 6.208 12.082 12.552 17.567 18.928-10.2 1.634-18.272 9.716-19.891 19.922-6.199-5.35-12.524-11.207-18.922-17.605s-12.255-12.722-17.604-18.921zm60.227 48.299c-4.411 0-8-3.589-8-8s3.589-8 8-8 8 3.589 8 8-3.589 8-8 8zm10.464 13.595c4.836-2.353 8.768-6.283 11.124-11.117 5.092 8.17 9.262 16.058 12.345 23.419-7.111-2.969-15.001-7.053-23.469-12.302zm6.506-155.251c1.511-1.511 3.521-2.343 5.657-2.343 27.224 0 49.373 22.148 49.373 49.373 0 2.137-.832 4.146-2.343 5.657l-22.739 22.739c-7.563-9.351-15.943-18.666-24.982-27.705s-18.354-17.419-27.705-24.982zm-117.696.93c2.16-2.16 5.701-3.268 10.391-3.268 19.453 0 58.663 19.077 100.958 61.372 52.493 52.493 69.22 100.231 58.104 111.349-2.92 2.92-8.385 3.898-15.779 2.833-8.034-27.204-31.198-61.683-63.011-93.495-31.813-31.813-66.291-54.978-93.495-63.011-1.066-7.395-.088-12.86 2.832-15.78z"></path></g></g></svg>