<svg xmlns="http://www.w3.org/2000/svg" xmlns:svg="http://www.w3.org/2000/svg" id="svg3072" xml:space="preserve" width="682.66669" height="682.66669" viewBox="0 0 682.66669 682.66669"><defs id="defs3076"><clipPath clipPathUnits="userSpaceOnUse" id="clipPath3086"><path d="M 0,512 H 512 V 0 H 0 Z" id="path3084"></path></clipPath></defs><g id="g3078" transform="matrix(1.3333333,0,0,-1.3333333,0,682.66667)"><g id="g3080"><g id="g3082" clip-path="url(#clipPath3086)"><g id="g3088" transform="translate(0,256)"><path d="M 0,0 C 0,141.385 114.615,256 256,256 397.385,256 512,141.385 512,0 512,-141.385 397.385,-256 256,-256 114.615,-256 0,-141.385 0,0" style="fill:#4bcdd7;fill-opacity:1;fill-rule:nonzero;stroke:none" id="path3090"></path></g><g id="g3092" transform="translate(512,256)"><path d="M 0,0 C 0,27.266 -4.279,53.529 -12.174,78.174 L -118,184 l -276,-344 91.84,-91.84 c 14.974,-2.727 30.399,-4.16 46.16,-4.16 141.385,0 256,114.615 256,256" style="fill:#00b8c1;fill-opacity:1;fill-rule:nonzero;stroke:none" id="path3094"></path></g><path d="M 394,96 H 118 v 320 h 276 z" style="fill:#ffffff;fill-opacity:1;fill-rule:nonzero;stroke:none" id="path3096"></path><path d="M 118,96 H 394 V 256.69 H 118 Z" style="fill:#e9edf5;fill-opacity:1;fill-rule:nonzero;stroke:none" id="path3098"></path><path d="m 168,96 h -50 v 320 h 50 z" style="fill:#cdd2e1;fill-opacity:1;fill-rule:nonzero;stroke:none" id="path3100"></path><path d="m 118,96 h 50 v 160.69 h -50 z" style="fill:#bec3d2;fill-opacity:1;fill-rule:nonzero;stroke:none" id="path3102"></path><g id="g3104" transform="translate(348,284.5)"><path d="m 0,0 h -48 v 48 h -57 V 0 h -48 v -57 h 48 v -48 h 57 v 48 H 0 Z" style="fill:#ff7045;fill-opacity:1;fill-rule:nonzero;stroke:none" id="path3106"></path></g><g id="g3108" transform="translate(195,256.6904)"><path d="m 0,0 v -29.19 h 48 v -48 h 57 v 48 h 48 V 0 Z" style="fill:#de4726;fill-opacity:1;fill-rule:nonzero;stroke:none" id="path3110"></path></g><g id="g3112" transform="translate(394,389)"><path d="m 0,0 h -250.5 c -14.083,0 -25.5,11.417 -25.5,25.5 0,14.083 11.417,25.5 25.5,25.5 H 0 Z" style="fill:#555a66;fill-opacity:1;fill-rule:nonzero;stroke:none" id="path3114"></path></g></g></g></g></svg>