<svg xmlns="http://www.w3.org/2000/svg" xmlns:xlink="http://www.w3.org/1999/xlink" id="Capa_1" x="0px" y="0px" viewBox="0 0 512 512" style="enable-background:new 0 0 512 512;" xml:space="preserve" width="512" height="512"><g>	<g>		<path style="fill:#FFFFFF;" d="M242,0c0,0,0,8,0,11c0,27,174,71,174,253c0,150-131,176-153,204c-3.956,5.035-8.667,19-8.667,30&#10;&#9;&#9;&#9;c0,3.5,0,14,0,14H74l0,0c0,0,0-7.5,0-10c0-35-66-73-66-177c0-81.5,46-129.635,46-183C54,111,33,27,33,9c0-2.25,0-9,0-9H242z"></path>		<linearGradient id="SVGID_1_" gradientUnits="userSpaceOnUse" x1="228" y1="64" x2="228" y2="408">			<stop offset="3.642173e-07" style="stop-color:#A7ACFF"></stop>			<stop offset="1" style="stop-color:#FFC8FF"></stop>		</linearGradient>		<path style="fill:url(#SVGID_1_);" d="M356.017,173.557c43.153,88.484,20.821,188.172-49.881,222.659&#10;&#9;&#9;&#9;s-162.999-9.287-206.153-97.772S79.162,110.271,149.864,75.785S312.864,85.072,356.017,173.557z"></path>		<path style="fill:#FFFFFF;" d="M301,316c-18,0-41-14-40-7.62c6.66,42.49-44,61.62-95,26.62c-27.45-18.83-44.18-61.09-35-107&#10;&#9;&#9;&#9;c2-10-11-17-12-34c-1.89-32.19,21.05-49,49-47c28,2,44.49,18.98,45,40c1,41-34.19,36.04-30,50c3,10,14,16,25,13&#10;&#9;&#9;&#9;c13.81-3.77,24-33,42-19c11.76,9.15,5.82,22.46-6.93,34.61c11.58-3.52,30.89,11.99,42.93,11.39c5.61-0.28,13.46-18.75,27.24-11&#10;&#9;&#9;&#9;C329.24,275,316.77,316,301,316z"></path>		<path style="fill:#FFFFFF;" d="M444,220c0-55.001,60-55.001,60-110.003C504,54.999,444,54.999,444,0l60,0&#10;&#9;&#9;&#9;c0,54.999-60,54.999-60,109.997c0,55.001,60,55.001,60,110.003H444z"></path>		<circle style="fill:#FFFFFF;" cx="424" cy="323" r="80"></circle>	</g>			<linearGradient id="SVGID_00000005977852642357538520000015481706371703493532_" gradientUnits="userSpaceOnUse" x1="256" y1="0" x2="256" y2="512">		<stop offset="0" style="stop-color:#004EA6"></stop>		<stop offset="1" style="stop-color:#CA42B2"></stop>	</linearGradient>			<path style="fill:none;stroke:url(#SVGID_00000005977852642357538520000015481706371703493532_);stroke-width:15;stroke-miterlimit:10;" d="&#10;&#9;&#9;M74,512L74,512c0,0,0-7.5,0-10c0-35-66-73-66-177c0-81.5,46-129.635,46-183C54,111,33,27,33,9c0-2.25,0-9,0-9 M377.818,257.696&#10;&#9;&#9;c-1.188-27.579-8.277-56.409-21.801-84.139C312.864,85.072,220.566,41.298,149.864,75.785S56.83,209.959,99.983,298.443&#10;&#9;&#9;c43.153,88.485,135.451,132.259,206.153,97.772c18.579-9.062,33.812-22.632,45.4-39.312 M415.23,243.48&#10;&#9;&#9;C402.79,78.62,242,36.95,242,11c0-3,0-11,0-11 M374.46,385.82C334.09,433.48,276.87,450.34,263,468c-3.96,5.03-8.67,19-8.67,30&#10;&#9;&#9;c0,3.5,0,14,0,14 M193,280c0,0,20.612,8.286,40-6c19-14,31.555-31.679,17-43c-18-14-28.187,15.233-42,19c-11,3-22-3-25-13&#10;&#9;&#9;c-4.189-13.963,31-9,30-50c-0.513-21.018-17-38-45-40c-27.947-1.996-50.894,14.807-49,47c1,17,14,24,12,34&#10;&#9;&#9;c-9.182,45.91,7.555,88.165,35,107c51,35,101.663,15.87,95-26.622C260,302,283,316,301,316c15.767,0,28.238-41,12.238-50&#10;&#9;&#9;c-13.781-7.752-21.627,10.721-27.238,11c-12.417,0.618-32.573-15.897-44-11 M374,228c0,0-23.405,15-34,15c-23,0-28-19-46-18&#10;&#9;&#9;s-38,16-38,16 M504,0c0,54.999-60,54.999-60,109.997c0,55.001,60,55.001,60,110.003 M444,220c0-55.001,60-55.001,60-110.003&#10;&#9;&#9;C504,54.999,444,54.999,444,0 M344,323c0,44.183,35.817,80,80,80s80-35.817,80-80s-35.817-80-80-80S344,278.817,344,323z M369,333&#10;&#9;&#9;l32,32l72-72 M444,126h60 M444,94h60 M444,199h60 M444,21h60"></path></g></svg>