<svg xmlns="http://www.w3.org/2000/svg" xmlns:xlink="http://www.w3.org/1999/xlink" id="Capa_1" x="0px" y="0px" viewBox="0 0 512 512" style="enable-background:new 0 0 512 512;" xml:space="preserve"><g>	<g>		<g>			<g>				<g>					<path style="fill:#DC8758;" d="M47.285,280.039V144.291c0-61.042,49.485-110.527,110.527-110.527h0&#10;&#9;&#9;&#9;&#9;&#9;&#9;c61.042,0,110.527,49.485,110.527,110.527l0,135.748c0,6.695-5.427,12.122-12.122,12.122H59.407&#10;&#9;&#9;&#9;&#9;&#9;&#9;C52.713,292.161,47.285,286.734,47.285,280.039z"></path>					<path style="fill:#C86D36;" d="M157.812,33.764L157.812,33.764c-4.444,0-8.825,0.27-13.132,0.78&#10;&#9;&#9;&#9;&#9;&#9;&#9;c54.851,6.495,97.395,53.149,97.395,109.747l0,135.688c0,6.704-5.418,12.149-12.122,12.182h0h26.264&#10;&#9;&#9;&#9;&#9;&#9;&#9;c6.695,0,12.122-5.427,12.122-12.122l0-135.748C268.339,83.249,218.855,33.764,157.812,33.764z"></path>					<path style="fill:#EAF6FF;" d="M253.543,334.182l-65.262-10.597h-60.936l-65.259,10.597&#10;&#9;&#9;&#9;&#9;&#9;&#9;c-31.465,5.109-54.581,32.282-54.581,64.159v96.003c0,5.609,4.547,10.156,10.156,10.156h280.307&#10;&#9;&#9;&#9;&#9;&#9;&#9;c5.609,0,10.156-4.547,10.156-10.156v-96.003C308.124,366.464,285.008,339.291,253.543,334.182z"></path>					<polygon style="fill:#62DBFB;" points="127.348,328.796 98.864,408.992 127.348,504.5 188.281,504.5 216.764,408.992 &#10;&#9;&#9;&#9;&#9;&#9;&#9;188.281,328.796 &#9;&#9;&#9;&#9;&#9;"></polygon>					<path style="fill:#D8ECFE;" d="M253.543,334.182l-8.295-1.347c21.829,10.663,36.47,33.034,36.47,58.396v103.112&#10;&#9;&#9;&#9;&#9;&#9;&#9;c0,5.609-4.547,10.156-10.156,10.156l0,0h26.406c5.609,0,10.156-4.547,10.156-10.156v-96.003&#10;&#9;&#9;&#9;&#9;&#9;&#9;C308.124,366.464,285.008,339.291,253.543,334.182z"></path>					<path style="fill:#F6A96C;" d="M127.344,323.585v-31.484h60.936v31.484c0,16.827-13.641,30.468-30.468,30.468h0&#10;&#9;&#9;&#9;&#9;&#9;&#9;C140.985,354.053,127.344,340.412,127.344,323.585z"></path>					<path style="fill:#FED2A4;" d="M79.611,180.218v43.838c0,43.188,35.01,78.2,78.198,78.202h0.004&#10;&#9;&#9;&#9;&#9;&#9;&#9;c43.189,0.002,78.202-35.009,78.202-78.198v-43.842c0-3.894-3.157-7.051-7.051-7.051h0c-25.454,0-49.159-12.953-62.909-34.374&#10;&#9;&#9;&#9;&#9;&#9;&#9;l-3.14-4.892c-2.385-3.716-7.816-3.716-10.201-0.001l-3.145,4.899c-13.75,21.418-37.453,34.367-62.904,34.367h-0.002&#10;&#9;&#9;&#9;&#9;&#9;&#9;C82.767,173.167,79.611,176.324,79.611,180.218z"></path>					<path style="fill:#FFBD86;" d="M228.963,173.167L228.963,173.167c-6.619,0-13.117-0.883-19.355-2.556v53.445&#10;&#9;&#9;&#9;&#9;&#9;&#9;c0,38.687-28.1,70.792-64.999,77.07l0,0l0,0c4.293,0.73,8.698,1.132,13.199,1.132h0.004&#10;&#9;&#9;&#9;&#9;&#9;&#9;c43.189,0.002,78.202-35.009,78.202-78.198v-43.842C236.014,176.324,232.857,173.167,228.963,173.167z"></path>				</g>			</g>			<path style="fill:#EAF6FF;" d="M244.303,335.086l-18.106,43.128c-1.734,4.13-1.676,8.795,0.16,12.881l15.709,34.957&#10;&#9;&#9;&#9;&#9;c2.011,4.476,1.88,9.623-0.356,13.99L208.712,504.5H188.28V313.484l51.913,8.743c2.918,0.491,5.054,3.018,5.054,5.977v2.191&#10;&#9;&#9;&#9;&#9;C245.248,332.005,244.927,333.601,244.303,335.086z"></path>			<path style="fill:#C4E2FF;" d="M244.303,335.086l-18.106,43.128c-1.734,4.13-1.676,8.795,0.16,12.881l15.709,34.957&#10;&#9;&#9;&#9;&#9;c2.011,4.476,1.88,9.623-0.356,13.99L208.712,504.5H188.28V313.484l51.913,8.743c2.918,0.491,5.054,3.018,5.054,5.977v2.191&#10;&#9;&#9;&#9;&#9;C245.248,332.005,244.927,333.601,244.303,335.086z"></path>			<path style="fill:#C4E2FF;" d="M71.325,335.086l18.106,43.128c1.734,4.13,1.676,8.795-0.16,12.881l-15.709,34.957&#10;&#9;&#9;&#9;&#9;c-2.011,4.476-1.88,9.623,0.356,13.99l32.999,64.456h20.432V313.484l-51.913,8.743c-2.918,0.491-5.054,3.018-5.054,5.977v2.191&#10;&#9;&#9;&#9;&#9;C70.38,332.005,70.702,333.601,71.325,335.086z"></path>		</g>		<g>			<path style="fill:#FD8087;" d="M343.159,53.968c0-2.323-0.458-4.538-1.281-6.565c4.264-4.139,6.949-9.896,7.053-16.284&#10;&#9;&#9;&#9;&#9;C349.143,18.13,338.269,7.5,325.279,7.5h0c-22.641,0-40.995,18.354-40.995,40.995V59.44c0,22.641,18.354,40.995,40.995,40.995h0&#10;&#9;&#9;&#9;&#9;c12.99,0,23.864-10.63,23.653-23.619c-0.104-6.387-2.789-12.144-7.053-16.284C342.702,58.506,343.159,56.291,343.159,53.968z"></path>			<path style="fill:#FD8087;" d="M445.625,53.968c0-2.323,0.458-4.538,1.281-6.565c-4.264-4.139-6.949-9.896-7.053-16.284&#10;&#9;&#9;&#9;&#9;C439.641,18.13,450.515,7.5,463.505,7.5h0c22.641,0,40.995,18.354,40.995,40.995V59.44c0,22.641-18.354,40.995-40.995,40.995h0&#10;&#9;&#9;&#9;&#9;c-12.99,0-23.864-10.63-23.653-23.619c0.104-6.387,2.789-12.144,7.053-16.284C446.082,58.506,445.625,56.291,445.625,53.968z"></path>			<path style="fill:#FE646F;" d="M502.166,34.853c-2.833,21.456-21.183,38.02-43.414,38.02c-6.22,0-12.132-1.304-17.491-3.641&#10;&#9;&#9;&#9;&#9;c-0.868,2.372-1.365,4.922-1.409,7.585c-0.211,12.988,10.662,23.618,23.653,23.618h0c22.641,0,40.995-18.354,40.995-40.995&#10;&#9;&#9;&#9;&#9;V48.495C504.5,43.711,503.672,39.122,502.166,34.853z"></path>			<path style="fill:#FE646F;" d="M343.082,55.557c-8.001,10.52-20.646,17.315-34.883,17.315c-8.593,0-16.602-2.484-23.365-6.759&#10;&#9;&#9;&#9;&#9;c3.188,19.465,20.078,34.321,40.445,34.321l0,0c12.99,0,23.864-10.63,23.653-23.618c-0.104-6.388-2.789-12.144-7.053-16.284&#10;&#9;&#9;&#9;&#9;C342.512,58.974,342.923,57.302,343.082,55.557z"></path>			<path style="fill:#FD8087;" d="M431.077,185.579c-11.812-4.51-24.249-6.765-36.685-6.765c-12.436,0-24.872,2.255-36.685,6.765&#10;&#9;&#9;&#9;&#9;c-11.366,4.34-18.874,15.244-18.874,27.41c0,30.683,24.876,55.543,55.559,55.545c30.683-0.002,55.559-24.862,55.559-55.545&#10;&#9;&#9;&#9;&#9;C449.951,200.823,442.443,189.919,431.077,185.579z"></path>			<path style="fill:#FE646F;" d="M431.077,185.579L431.077,185.579c-1.422-0.543-2.855-1.05-4.294-1.527&#10;&#9;&#9;&#9;&#9;c0.608,2.357,0.945,4.809,0.945,7.321l0,0c0,30.93-25.274,55.957-56.297,55.554c-9.054-0.118-17.55-2.452-25.036-6.455&#10;&#9;&#9;&#9;&#9;c9.488,16.5,26.993,27.808,47.259,28.071c31.023,0.402,56.297-24.624,56.297-55.554&#10;&#9;&#9;&#9;&#9;C449.951,200.823,442.443,189.919,431.077,185.579z"></path>		</g>	</g>	<g>		<path style="fill:none;stroke:#000000;stroke-width:15;stroke-linecap:round;stroke-linejoin:round;stroke-miterlimit:10;" d="&#10;&#9;&#9;&#9;M196.269,292.154h59.943c6.695,0,12.122-5.427,12.122-12.122V144.286c0-30.517-12.374-58.145-32.366-78.146&#10;&#9;&#9;&#9;c-20.001-20.001-47.629-32.376-78.156-32.376c-61.044,0-110.532,49.488-110.532,110.522v135.756&#10;&#9;&#9;&#9;c0,6.695,5.427,12.122,12.122,12.122h59.963"></path>		<path style="fill:none;stroke:#000000;stroke-width:15;stroke-linecap:round;stroke-linejoin:round;stroke-miterlimit:10;" d="&#10;&#9;&#9;&#9;M188.281,296.105v27.477c0,16.829-13.637,30.477-30.466,30.477c-8.415,0-16.031-3.414-21.547-8.93&#10;&#9;&#9;&#9;c-5.505-5.516-8.92-13.132-8.92-21.547v-27.477"></path>		<path style="fill:none;stroke:#000000;stroke-width:15;stroke-linecap:round;stroke-linejoin:round;stroke-miterlimit:10;" d="&#10;&#9;&#9;&#9;M308.12,466.36v27.99c0,5.6-4.54,10.15-10.15,10.15H17.66c-5.6,0-10.16-4.55-10.16-10.15v-27.99"></path>		<path style="fill:none;stroke:#000000;stroke-width:15;stroke-linecap:round;stroke-linejoin:round;stroke-miterlimit:10;" d="&#10;&#9;&#9;&#9;M245.01,332.8l8.54,1.39c31.46,5.1,54.57,32.27,54.57,64.15v32.92"></path>		<path style="fill:none;stroke:#000000;stroke-width:15;stroke-linecap:round;stroke-linejoin:round;stroke-miterlimit:10;" d="&#10;&#9;&#9;&#9;M70.63,332.79c0,0,0,0,0,0.01l-8.54,1.39c-31.47,5.1-54.59,32.27-54.59,64.15v32.92"></path>		<path style="fill:none;stroke:#000000;stroke-width:15;stroke-linecap:round;stroke-linejoin:round;stroke-miterlimit:10;" d="&#10;&#9;&#9;&#9;M79.611,180.218v43.838c0,43.188,35.01,78.2,78.198,78.202h0.004c43.189,0.002,78.202-35.009,78.202-78.198v-43.842&#10;&#9;&#9;&#9;c0-3.894-3.157-7.051-7.051-7.051h0c-25.454,0-49.159-12.953-62.909-34.374l-3.14-4.892c-2.385-3.716-7.816-3.716-10.201-0.001&#10;&#9;&#9;&#9;l-3.145,4.899c-13.75,21.418-37.453,34.367-62.904,34.367h-0.002C82.767,173.167,79.611,176.324,79.611,180.218z"></path>		<path style="fill:none;stroke:#000000;stroke-width:15;stroke-linecap:round;stroke-linejoin:round;stroke-miterlimit:10;" d="&#10;&#9;&#9;&#9;M244.303,335.086l-18.106,43.128c-1.734,4.13-1.676,8.795,0.16,12.881l15.709,34.957c2.011,4.476,1.88,9.623-0.356,13.99&#10;&#9;&#9;&#9;L208.712,504.5H188.28V313.484l51.913,8.743c2.918,0.491,5.054,3.018,5.054,5.977v2.191&#10;&#9;&#9;&#9;C245.248,332.005,244.927,333.601,244.303,335.086z"></path>		<path style="fill:none;stroke:#000000;stroke-width:15;stroke-linecap:round;stroke-linejoin:round;stroke-miterlimit:10;" d="&#10;&#9;&#9;&#9;M71.325,335.086l18.106,43.128c1.734,4.13,1.676,8.795-0.16,12.881l-15.709,34.957c-2.011,4.476-1.88,9.623,0.356,13.99&#10;&#9;&#9;&#9;l32.999,64.456h20.432V313.484l-51.913,8.743c-2.918,0.491-5.054,3.018-5.054,5.977v2.191&#10;&#9;&#9;&#9;C70.38,332.005,70.702,333.601,71.325,335.086z"></path>					<line style="fill:none;stroke:#000000;stroke-width:15;stroke-linecap:round;stroke-linejoin:round;stroke-miterlimit:10;" x1="267.718" y1="456.012" x2="267.718" y2="504.5"></line>					<line style="fill:none;stroke:#000000;stroke-width:15;stroke-linecap:round;stroke-linejoin:round;stroke-miterlimit:10;" x1="47.907" y1="456.012" x2="47.907" y2="504.5"></line>		<path style="fill:none;stroke:#000000;stroke-width:15;stroke-linecap:round;stroke-linejoin:round;stroke-miterlimit:10;" d="&#10;&#9;&#9;&#9;M343.159,53.968h11.836c13.39,0,24.244,10.854,24.244,24.244v29.281c0,12.856-4.584,25.291-12.929,35.071l0,0&#10;&#9;&#9;&#9;c-8.345,9.78-12.929,22.215-12.929,35.071v9.892"></path>		<path style="fill:none;stroke:#000000;stroke-width:15;stroke-linecap:round;stroke-linejoin:round;stroke-miterlimit:10;" d="&#10;&#9;&#9;&#9;M445.625,53.968h-11.836c-13.39,0-24.244,10.854-24.244,24.244v29.281c0,12.856,4.584,25.291,12.929,35.071l0,0&#10;&#9;&#9;&#9;c8.345,9.78,12.929,22.215,12.929,35.071v9.892"></path>		<path style="fill:none;stroke:#000000;stroke-width:15;stroke-linecap:round;stroke-linejoin:round;stroke-miterlimit:10;" d="&#10;&#9;&#9;&#9;M343.159,53.968c0-2.323-0.458-4.538-1.281-6.565c4.264-4.139,6.949-9.896,7.053-16.284C349.143,18.13,338.269,7.5,325.279,7.5h0&#10;&#9;&#9;&#9;c-22.641,0-40.995,18.354-40.995,40.995V59.44c0,22.641,18.354,40.995,40.995,40.995h0c12.99,0,23.864-10.63,23.653-23.619&#10;&#9;&#9;&#9;c-0.104-6.387-2.789-12.144-7.053-16.284C342.702,58.506,343.159,56.291,343.159,53.968z"></path>		<path style="fill:none;stroke:#000000;stroke-width:15;stroke-linecap:round;stroke-linejoin:round;stroke-miterlimit:10;" d="&#10;&#9;&#9;&#9;M445.625,53.968c0-2.323,0.458-4.538,1.281-6.565c-4.264-4.139-6.949-9.896-7.053-16.284C439.641,18.13,450.515,7.5,463.505,7.5h0&#10;&#9;&#9;&#9;c22.641,0,40.995,18.354,40.995,40.995V59.44c0,22.641-18.354,40.995-40.995,40.995h0c-12.99,0-23.864-10.63-23.653-23.619&#10;&#9;&#9;&#9;c0.104-6.387,2.789-12.144,7.053-16.284C446.082,58.506,445.625,56.291,445.625,53.968z"></path>		<path style="fill:none;stroke:#000000;stroke-width:15;stroke-linecap:round;stroke-linejoin:round;stroke-miterlimit:10;" d="&#10;&#9;&#9;&#9;M449.951,212.989c0,30.93-25.274,55.957-56.297,55.554c-30.532-0.396-54.821-25.848-54.821-56.382v0&#10;&#9;&#9;&#9;c0-11.667,7.201-22.124,18.1-26.286l0.774-0.295c23.625-9.02,49.745-9.02,73.369,0l0,0&#10;&#9;&#9;&#9;C442.443,189.919,449.951,200.823,449.951,212.989L449.951,212.989z"></path>					<line style="fill:none;stroke:#000000;stroke-width:15;stroke-linecap:round;stroke-linejoin:round;stroke-miterlimit:10;" x1="393.654" y1="268.543" x2="393.654" y2="288.746"></line>	</g></g><g></g><g></g><g></g><g></g><g></g><g></g><g></g><g></g><g></g><g></g><g></g><g></g><g></g><g></g><g></g></svg>