<svg xmlns="http://www.w3.org/2000/svg" xmlns:xlink="http://www.w3.org/1999/xlink" clip-rule="evenodd" fill-rule="evenodd" height="512" viewBox="0 0 4335 4335" width="512"><linearGradient id="id0" gradientUnits="userSpaceOnUse" x1="2167.33" x2="2167.33" y1="128.4" y2="4206.52"><stop offset="0" stop-color="#5cc6d0"></stop><stop offset=".490196" stop-color="#a53692"></stop><stop offset="1" stop-color="#f06277"></stop></linearGradient><g id="Layer_x0020_1"><path d="m896 3362-99-31c-180-91-261-299-204-490-349-20-513-438-276-695-246-134-241-473 4-606-243-250-76-679 272-699-102-335 241-640 557-497 59-326 469-459 698-219 78 81 120 191 120 304v1285c130-20 269-20 399-1v-1288c-4-227 180-427 412-427 201 0 371 148 406 339 315-142 665 162 557 497 350 21 510 442 272 695 251 137 244 464 3 607 241 253 76 678-271 698 56 187-25 395-205 490-34 15-67 27-100 34-150 565-663 979-1272 979-607 0-1121-414-1273-975zm1379 343h-222c-46 0-85-38-85-88v-402h-398c-46 0-89-39-89-85v-222c0-46 43-88 89-88h402v-399c0-49 39-88 84-88h223c49 0 88 39 88 88v403h402c49 0 88 38 88 88v222c-7 46-42 81-92 81h-402v402c0 50-39 88-88 88zm-180-123h145v-427c0-35 28-63 63-63h427v-145h-427c-35 0-63-28-63-64v-423h-145v427c0 35-28 63-63 63h-427v145h427c35 0 63 28 63 64zm-1121-581c2 6 3 13 3 20 0 167 23 186 33 293 131 519 601 903 1159 903 559 0 1029-385 1160-903 8-101 38-168 36-293-12-770-690-1311-1445-1166-543 104-937 597-946 1146zm867-2576c4-161-126-303-289-303-159 0-289 130-289 289 0 36 1 73-36 92-21 10-45 7-67-7-88-74-208-85-313-32-151 75-201 281-117 398 34 47 9 127-60 110-284-69-486 313-229 515 29 24 60 29 56 74-3 24-21 46-46 53-270 74-270 377 0 451 60 16 59 103 11 113-3 0-7 4-11 7 0 4-7 7-10 11-252 221-51 572 236 515 71-13 92 61 50 120-71 141-15 317 123 388 4 3 11 3 14 7-106-672 329-1319 977-1486zm1824 543c-59 15-96-50-64-99 92-139 34-336-113-412-102-53-225-39-314 32-27 22-102 28-102-71 0-271-308-405-497-215-57 56-85 130-81 211v1325c560 143 977 647 990 1248 5 9 8 20 8 31 0 67-7 137-18 204 4-3 11-3 14-7 141-71 198-247 124-388-14-32-36-59-14-92 14-21 39-31 63-28 327 59 482-350 212-532-53-36-43-99 10-113 271-74 271-378 0-452-37-10-77-68-10-113 300-203 72-600-208-529z" fill="url(#id0)"></path></g></svg>