<svg xmlns="http://www.w3.org/2000/svg" height="512" viewBox="0 0 64 64" width="512"><g id="Doctor-Surgery-Avatar-Woman-Brain"><path d="m19 41.93v19.07h-16v-15.12a7.985 7.985 0 0 1 5.61-7.63l6.48-2.03a8.021 8.021 0 0 0 3.91 5.71z" fill="#00b39d"></path><path d="m43 45.88v15.12h-24v-19.07a8.006 8.006 0 0 0 11.91-5.71l6.48 2.03a7.985 7.985 0 0 1 5.61 7.63z" fill="#00ccb3"></path><path d="m34 19a3 3 0 0 1 1.04 5.81 2.958 2.958 0 0 1 .96 2.19 3 3 0 0 1 -3 3 2.93 2.93 0 0 1 -1.11-.22 2.993 2.993 0 0 1 -5.84-.26h-6.1a2.993 2.993 0 0 1 -5.84.26 2.93 2.93 0 0 1 -1.11.22 3 3 0 0 1 -3-3 2.958 2.958 0 0 1 .96-2.19 3 3 0 0 1 1.04-5.81 2.772 2.772 0 0 1 1 .18h20a2.772 2.772 0 0 1 1-.18z" fill="#57565c"></path><path d="m30.91 36.22a8 8 0 0 1 -15.82 0l3.91-1.22v-6.84h8v6.84z" fill="#ffc477"></path><g fill="#ffb655"><path d="m34 15a3 3 0 0 1 0 6h-2v-6z"></path><path d="m14 15v6h-2a3 3 0 0 1 0-6z"></path><path d="m27 28.16v4a9.944 9.944 0 0 1 -8 0v-4z"></path></g><path d="m33 13v8a10 10 0 0 1 -20 0v-8a2.006 2.006 0 0 1 2-2h16a2.006 2.006 0 0 1 2 2z" fill="#ffc477"></path><path d="m33 7v8a2.006 2.006 0 0 0 -2-2h-16a2.006 2.006 0 0 0 -2 2v-8a4 4 0 0 1 4-4h12a4 4 0 0 1 4 4z" fill="#00ccb3"></path><circle cx="12" cy="49" fill="#e6e7e8" r="3"></circle><path d="m49 39v20l-2 2h-2l-2-3h-2l-1-1v-3l-3-1v-8l3-1v-3l1-1h2l2-3h2z" fill="#ff9811"></path><path d="m58 44 3 1v8l-3 1v3l-1 1h-2l-2 3h-2l-2-2v-20l2-2h2l2 3h2l1 1z" fill="#ff9811"></path><path d="m30 21v7.14a10 10 0 0 1 -14 0v-7.14z" fill="#44ffe8"></path><circle cx="19" cy="17" r="2"></circle><circle cx="27" cy="17" r="2"></circle><path d="m22 10h2v-1h1v-2h-1v-1h-2v1h-1v2h1z"></path><path d="m22 46h2v2h-2z"></path><path d="m22 50h2v2h-2z"></path><path d="m22 54h2v2h-2z"></path><path d="m46 52h-2v3a1 1 0 0 0 .293.707l1 1 1.414-1.414-.707-.707z"></path><path d="m44.293 42.293a1 1 0 0 0 -.293.707v3h2v-2.586l.707-.707-1.414-1.414z"></path><path d="m52 54.586-.707.707 1.414 1.414 1-1a1 1 0 0 0 .293-.707v-3h-2z"></path><path d="m61.32 44.05-2.32-.77v-2.28a1.033 1.033 0 0 0 -.29-.71l-1-1a1.033 1.033 0 0 0 -.71-.29h-1.46l-1.71-2.55a1 1 0 0 0 -.83-.45h-2a1.033 1.033 0 0 0 -.71.29l-1.29 1.3-1.29-1.3a1.033 1.033 0 0 0 -.71-.29h-2a1 1 0 0 0 -.83.45l-1.71 2.55h-1.46a.584.584 0 0 0 -.18.04 8.542 8.542 0 0 0 -3.13-1.74l-2.75-.86a4.982 4.982 0 0 0 -3.57-4.23 3.926 3.926 0 0 0 1.11-1.25 3.037 3.037 0 0 0 .52.04 4 4 0 0 0 3.52-5.9 3.987 3.987 0 0 0 1.48-3.1 4.076 4.076 0 0 0 -.33-1.59c-.07-.14-.14-.28-.22-.41a3.981 3.981 0 0 0 -3.45-6v-7a5 5 0 0 0 -5-5h-12a5 5 0 0 0 -5 5v7a3.981 3.981 0 0 0 -3.45 6c-.07.13-.15.26-.21.4a3.971 3.971 0 0 0 1.14 4.7 4 4 0 0 0 4.04 5.86 3.926 3.926 0 0 0 1.11 1.25 4.982 4.982 0 0 0 -3.57 4.23l-2.75.85a8.963 8.963 0 0 0 -6.31 8.59v15.12a1 1 0 0 0 1 1h40a.975.975 0 0 0 .95-.77l.22.32a1 1 0 0 0 .83.45h2a1.033 1.033 0 0 0 .71-.29l1.29-1.3 1.29 1.3a1.033 1.033 0 0 0 .71.29h2a1 1 0 0 0 .83-.45l1.71-2.55h1.46a1.033 1.033 0 0 0 .71-.29l1-1a1.033 1.033 0 0 0 .29-.71v-2.28l2.32-.77a1.014 1.014 0 0 0 .68-.95v-8a1.014 1.014 0 0 0 -.68-.95zm-26.32-5.5 2.1.66a6.661 6.661 0 0 1 2.16 1.13.994.994 0 0 0 -.26.66v2.28l-1.4.47a5.029 5.029 0 0 0 -2.6-.75zm-2.29-2.81-4.71-1.48v-.26h2a3.005 3.005 0 0 1 2.71 1.74zm-3.37-15.74h-12.68l-2.41-5.64a.985.985 0 0 1 .75-.36h16a.985.985 0 0 1 .75.36zm2.66-1.13v2.13a8.967 8.967 0 0 1 -1 4.1v-3.89zm-15 7.13h4v-2h-4v-2h12v2h-4v2h4v1.69a8.947 8.947 0 0 1 -12 0zm3 9v-3.43a10.68 10.68 0 0 0 6 0v3.43a.987.987 0 0 0 .7.95l3.04.95a7 7 0 0 1 -13.48 0l3.04-.95a.987.987 0 0 0 .7-.95zm14-19a2.006 2.006 0 0 1 2 2 2.015 2.015 0 0 1 -2 2zm-.05 6h.05a3.961 3.961 0 0 0 1.92-.51 1.753 1.753 0 0 1 .08.51 1.991 1.991 0 0 1 -1.3 1.87 1 1 0 0 0 -.33 1.68 1.965 1.965 0 0 1 .63 1.45 2.006 2.006 0 0 1 -2 2 1.835 1.835 0 0 1 -.73-.15 1.085 1.085 0 0 0 -.83.03 1.071 1.071 0 0 0 -.52.64 1.99 1.99 0 0 1 -1.92 1.48 2.05 2.05 0 0 1 -.94-.24 11.042 11.042 0 0 0 5.89-8.76zm-19.95-15a3.009 3.009 0 0 1 3-3h12a3.009 3.009 0 0 1 3 3v5.18a3 3 0 0 0 -1-.18h-16a3 3 0 0 0 -1 .18zm0 11.87 1 2.34v3.89a8.967 8.967 0 0 1 -1-4.1zm-2-2.87v4a2.015 2.015 0 0 1 -2-2 2.006 2.006 0 0 1 2-2zm2.56 12.88a1.085 1.085 0 0 0 -.83-.03 1.835 1.835 0 0 1 -.73.15 2.006 2.006 0 0 1 -2-2 1.965 1.965 0 0 1 .63-1.45 1 1 0 0 0 -.33-1.68 1.991 1.991 0 0 1 -1.3-1.87 1.807 1.807 0 0 1 .08-.51 3.961 3.961 0 0 0 1.92.51h.05a11.042 11.042 0 0 0 5.89 8.76 2.05 2.05 0 0 1 -.94.24 1.99 1.99 0 0 1 -1.92-1.48 1.071 1.071 0 0 0 -.52-.64zm1.44 5.12h2v.26l-4.71 1.48a3.005 3.005 0 0 1 2.71-1.74zm-4 13a2 2 0 1 1 -2 2 2.006 2.006 0 0 1 2-2zm6 13h-6v-.62a4.837 4.837 0 0 0 -.83-2.74 6.794 6.794 0 0 1 -1.17-3.64h-2a8.855 8.855 0 0 0 1.52 4.77 2.83 2.83 0 0 1 .48 1.61v.62h-6v-14.12a6.964 6.964 0 0 1 4.91-6.68l2.09-.65v6.59a4 4 0 1 0 2 0v-7.22l1.36-.42a8.9 8.9 0 0 0 3.64 4.99zm24 0h-6v-.62a2.83 2.83 0 0 1 .48-1.61 9.411 9.411 0 0 0 1.17-2.48l-1.92-.58a6.719 6.719 0 0 1 -.91 1.93 4.907 4.907 0 0 0 -.82 2.74v.62h-14v-16.51a9.042 9.042 0 0 0 3 .51 8.923 8.923 0 0 0 8.64-6.5l1.36.42v5.08a5 5 0 0 0 -5 5v4a1 1 0 0 0 1 1h2v-2h-1v-3a3.009 3.009 0 0 1 3-3h2a2.852 2.852 0 0 1 1 .18v7.82a1.014 1.014 0 0 0 .68.95l2.32.77v2.28a1.033 1.033 0 0 0 .29.71l1 1a1.033 1.033 0 0 0 .71.29h1zm6-1.41-1.41 1.41h-1.05l-1.71-2.55a1 1 0 0 0 -.83-.45h-1.59l-.41-.41v-2.18l1.71-1.7a1.033 1.033 0 0 0 .29-.71v-2h-2v1.59l-1.27 1.27-1.73-.58v-6.56l1.73-.58 1.27 1.27v1.59h2v-2a1.033 1.033 0 0 0 -.29-.71l-1.71-1.7v-2.18l.41-.41h1.59a1 1 0 0 0 .83-.45l1.71-2.55h1.05l1.41 1.41zm12-6.31-1.73.58-1.27-1.27v-1.59h-2v2a1.033 1.033 0 0 0 .29.71l1.71 1.7v2.18l-.41.41h-1.59a1 1 0 0 0 -.83.45l-1.71 2.55h-1.05l-1.41-1.41v-19.18l1.41-1.41h1.05l1.71 2.55a1 1 0 0 0 .83.45h1.59l.41.41v2.18l-1.71 1.7a1.033 1.033 0 0 0 -.29.71v2h2v-1.59l1.27-1.27 1.73.58z"></path><path d="m52.707 41.293-1.414 1.414.707.707v2.586h2v-3a1 1 0 0 0 -.293-.707z"></path></g></svg>