<svg xmlns="http://www.w3.org/2000/svg" xmlns:svg="http://www.w3.org/2000/svg" id="svg6591" width="682.66669" height="682.66669" viewBox="0 0 682.66669 682.66669"><defs id="defs6595"><clipPath clipPathUnits="userSpaceOnUse" id="clipPath6605"><path d="M 0,512 H 512 V 0 H 0 Z" id="path6603"></path></clipPath></defs><g id="g6597" transform="matrix(1.3333333,0,0,-1.3333333,0,682.66667)"><g id="g6599"><g id="g6601" clip-path="url(#clipPath6605)"><g id="g6607" transform="translate(357.8594,183.8633)"><path d="m 0,0 c -15.553,4.083 -28.785,-13.177 -34.027,-30.507 -5.485,-18.126 -0.105,-42.945 16.812,-48.703 25.206,-8.578 48.162,27.365 29.347,45.68 l 1.904,7.254 C 16.04,-18.641 15.553,-4.082 0,0 m 56.149,-33.53 c -18.816,-18.315 4.141,-54.258 29.347,-45.68 16.917,5.758 22.297,30.577 16.813,48.703 C 97.066,-13.177 83.834,4.083 68.28,0 52.729,-4.082 52.241,-18.641 54.245,-26.276 Z" style="fill:#ff6a47;fill-opacity:1;fill-rule:evenodd;stroke:none" id="path6609"></path></g><g id="g6611" transform="translate(392,232.502)"><path d="m 0,0 c -62.495,0 -112.5,-50.729 -112.5,-112.5 0,-61.79 50.025,-112.5 112.5,-112.5 62.132,0 112.5,50.368 112.5,112.5 C 112.5,-50.367 62.132,0 0,0 m -34.141,-48.639 c 15.553,-4.082 16.04,-18.64 14.037,-26.276 l -1.905,-7.254 c 18.816,-18.314 -4.14,-54.258 -29.346,-45.68 -16.917,5.758 -22.297,30.578 -16.813,48.703 5.242,17.331 18.475,34.59 34.027,30.507 m 85.496,-79.21 c -25.206,-8.578 -48.163,27.366 -29.346,45.68 l -1.905,7.254 c -2.003,7.636 -1.516,22.194 14.036,26.276 15.553,4.083 28.786,-13.176 34.028,-30.507 5.484,-18.125 0.104,-42.945 -16.813,-48.703" style="fill:#94b8f7;fill-opacity:1;fill-rule:evenodd;stroke:none" id="path6613"></path></g><g id="g6615" transform="translate(200.0249,401.7969)"><path d="M 0,0 C -18.397,0 -29.762,18.531 -53.292,15.726 -70.555,13.667 -89.999,4.258 -89.999,-15 V -60.001 H -15 v -30 c 0,-8.25 -6.75,-15 -15,-15 h -44.999 c -8.251,0 -15,6.752 -15,15 v -30 c 0,-33.133 18.15,-62.238 44.999,-77.859 13.258,-7.713 28.637,-12.14 45,-12.14 16.362,0 31.741,4.427 44.999,12.14 26.85,15.621 45,44.726 45,77.859 v 29.869 C 89.928,-98.322 83.206,-105.001 75,-105.001 H 30 c -8.25,0 -15,6.752 -15,15 v 30 H 89.999 V -15 C 89.999,2.258 70.554,13.667 53.291,15.726 29.761,18.531 18.396,0 0,0" style="fill:#ffdaaa;fill-opacity:1;fill-rule:evenodd;stroke:none" id="path6617"></path></g><g id="g6619" transform="translate(185.0254,311.7959)"><path d="M 0,0 V 30 H -75 V 0 c 0,-8.248 6.75,-15 15,-15 h 45 c 8.25,0 15,6.75 15,15 M 29.999,30 V 0 c 0,-8.248 6.75,-15 15,-15 h 45 c 8.206,0 14.929,6.679 14.999,14.869 V 30 Z" style="fill:#ffffff;fill-opacity:1;fill-rule:evenodd;stroke:none" id="path6621"></path></g><g id="g6623" transform="translate(110.0259,281.7959)"><path d="m 0,0 v 60 h -30 c -8.25,0 -15,-6.75 -15,-15 V 30 C -45,13.5 -31.5,0 -15,0 Z m 179.998,0 h 15 c 16.5,0 30,13.5 30,30 v 15 c 0,8.25 -6.75,15 -15,15 h -29.999 c 0,-20 -0.001,-40 -0.001,-60" style="fill:#ffb780;fill-opacity:1;fill-rule:evenodd;stroke:none" id="path6625"></path></g><g id="g6627" transform="translate(132.5254,296.7959)"><path d="m 0,0 h -7.5 c -8.25,0 -15,6.752 -15,15 v -30 c 0,-33.133 18.15,-62.238 45,-77.859 17.014,-9.899 36.75,-13.893 56.249,-11.435 C 34.158,-98.668 0,-60.333 0,-15 Z M 0,117.336 C -12.234,112.784 -22.5,103.992 -22.5,90.001 V 45 H 0 Z" style="fill:#ffb780;fill-opacity:1;fill-rule:evenodd;stroke:none" id="path6629"></path></g><g id="g6631" transform="translate(132.5254,341.7959)"><path d="m 0,0 h -22.5 v -30 c 0,-8.248 6.75,-15 15,-15 H 0 Z" style="fill:#9ce4f8;fill-opacity:1;fill-rule:evenodd;stroke:none" id="path6633"></path></g><g id="g6635" transform="translate(80.0234,419.6855)"><path d="m 0,0 -0.002,-77.89 h 30 v 45.001 c 0,19.257 19.445,28.667 36.708,30.726 23.528,2.805 34.894,-15.726 53.291,-15.726 18.397,0 29.762,18.531 53.291,15.726 17.263,-2.059 36.707,-13.469 36.707,-30.726 V -77.89 H 240 L 239.998,0 c 0,13.808 -9.454,25.512 -22.208,28.965 0,36.991 -47.286,55.851 -97.791,55.851 -50.505,0 -97.791,-18.86 -97.791,-55.851 C 9.454,25.512 0,13.808 0,0" style="fill:#e07f66;fill-opacity:1;fill-rule:evenodd;stroke:none" id="path6637"></path></g><g id="g6639" transform="translate(124.7314,486.1689)"><path d="m 0,0 c -13.848,-9.166 -22.5,-21.716 -22.5,-37.531 -12.754,-3.453 -22.208,-15.158 -22.208,-28.965 l -0.002,-77.877 h 22.5 l 0.002,77.876 c 0,8.474 15.356,9.893 22.208,11.747 z" style="fill:#d9694b;fill-opacity:1;fill-rule:evenodd;stroke:none" id="path6641"></path></g><g id="g6643" transform="translate(245.0249,7.5088)"><path d="m 0,0 h 34.475 l 11.66,62.567 c -7.464,15.045 -11.66,31.999 -11.66,49.933 0,12.658 2.091,24.828 5.946,36.183 L 0,161.796 Z m -90,161.796 -43.762,-15 L -156,72.019 -136.136,62.567 -124.475,0 H -90 Z" style="fill:#9ce4f8;fill-opacity:1;fill-rule:evenodd;stroke:none" id="path6645"></path></g><g id="g6647" transform="translate(291.1602,70.0762)"><path d="m 0,0 -11.66,-62.567 h 112.5 c -7.705,0 -15.231,0.774 -22.5,2.25 C 43.909,-53.328 15.188,-30.615 0,0 m -182.271,0 -19.864,9.451 22.238,74.778 -43.763,-15 c -31.215,-10.7 -60,-27.002 -60,-60 v -71.796 h 113.05 z" style="fill:#ffffff;fill-opacity:1;fill-rule:evenodd;stroke:none" id="path6649"></path></g><g id="g6651" transform="translate(200.0249,191.8037)"><path d="M 0,0 C -16.363,0 -31.742,4.426 -45,12.139 V -22.499 L 0,-54.007 45,-22.499 V 12.139 C 31.742,4.426 16.362,0 0,0" style="fill:#ffdaaa;fill-opacity:1;fill-rule:evenodd;stroke:none" id="path6653"></path></g><g id="g6655" transform="translate(200.0249,137.7969)"><path d="m 0,0 -45,31.508 v -49.414 l 24.087,-12.17 z" style="fill:#94b8f7;fill-opacity:1;fill-rule:evenodd;stroke:none" id="path6657"></path></g><g id="g6659" transform="translate(179.1123,107.7207)"><path d="m 0,0 -24.087,12.17 v -112.382 l 34.345,77.563 z" style="fill:#5b92f3;fill-opacity:1;fill-rule:evenodd;stroke:none" id="path6661"></path></g><g id="g6663" transform="translate(189.3706,85.0713)"><path d="m 0,0 -34.346,-77.563 h 90 L 21.308,0 Z" style="fill:#ff6a47;fill-opacity:1;fill-rule:evenodd;stroke:none" id="path6665"></path></g><g id="g6667" transform="translate(179.1123,107.7207)"><path d="M 0,0 10.258,-22.649 H 31.566 L 41.825,0 20.913,30.076 Z" style="fill:#ff6a47;fill-opacity:1;fill-rule:evenodd;stroke:none" id="path6669"></path></g><g id="g6671" transform="translate(200.0249,137.7969)"><path d="M 0,0 20.913,-30.076 45,-17.906 v 49.414 z" style="fill:#94b8f7;fill-opacity:1;fill-rule:evenodd;stroke:none" id="path6673"></path></g><g id="g6675" transform="translate(220.9375,107.7207)"><path d="m 0,0 -10.259,-22.649 34.346,-77.563 V 12.17 Z" style="fill:#5b92f3;fill-opacity:1;fill-rule:evenodd;stroke:none" id="path6677"></path></g><g id="g6679" transform="translate(177.5249,194.6709)"><path d="M 0,0 C -7.976,2.072 -15.531,5.217 -22.5,9.271 V -25.366 L 0,-41.12 Z" style="fill:#ffb780;fill-opacity:1;fill-rule:evenodd;stroke:none" id="path6681"></path></g><g id="g6683" transform="translate(34.5078,124.124)"><path d="m 0,0 c -15.898,-10.272 -27.008,-24.327 -27.008,-44.826 l 10e-4,-71.796 h 22.499 v 94.296 C -4.508,-14.302 -2.9,-6.802 0,0" style="fill:#9ce4f8;fill-opacity:1;fill-rule:evenodd;stroke:none" id="path6685"></path></g><g id="g6687" transform="translate(279.5,120.002)"><path d="M 0,0 C 0,-66.73 57.607,-118.508 123.75,-111.941 66.9,-106.297 22.5,-58.335 22.5,0 22.5,58.013 66.606,106.284 123.742,111.942 57.594,118.504 0,66.727 0,0" style="fill:#5b92f3;fill-opacity:1;fill-rule:evenodd;stroke:none" id="path6689"></path></g><g id="g6691" transform="translate(322.9863,150.127)"><path d="M 0,0 C -3.972,-17.723 1.727,-40.051 17.658,-45.474 40.421,-53.221 61.345,-24.659 51.33,-5.561 39.667,-32.183 6.832,-30.564 0,0 m 86.696,-5.561 c -10.013,-19.098 10.91,-47.66 33.673,-39.913 15.932,5.423 21.63,27.751 17.658,45.474 -6.832,-30.564 -39.667,-32.183 -51.331,-5.561" style="fill:#fd3501;fill-opacity:1;fill-rule:evenodd;stroke:none" id="path6693"></path></g><g id="g6695" transform="translate(262.2305,446.082)"><path d="m 0,0 v 15.001 m -30,0 v 15" style="fill:none;stroke:#ffffff;stroke-width:15;stroke-linecap:butt;stroke-linejoin:miter;stroke-miterlimit:2.613;stroke-dasharray:none;stroke-opacity:1" id="path6697"></path></g><g id="g6699" transform="translate(155.0249,119.8838)"><path d="M 0,0 24.087,-12.17 45,17.907" style="fill:none;stroke:#000000;stroke-width:15;stroke-linecap:butt;stroke-linejoin:miter;stroke-miterlimit:22.926;stroke-dasharray:none;stroke-opacity:1" id="path6701"></path></g><g id="g6703" transform="translate(290.0234,281.7959)"><path d="m 0,0 h 15 c 16.5,0 30,13.5 30,30 v 15 c 0,8.25 -6.75,15 -15,15 H 0 M -179.998,0 h -15 c -16.5,0 -30,13.5 -30,30 v 15 c 0,8.25 6.75,15 15,15 h 30" style="fill:none;stroke:#000000;stroke-width:15;stroke-linecap:butt;stroke-linejoin:miter;stroke-miterlimit:22.926;stroke-dasharray:none;stroke-opacity:1" id="path6705"></path></g><g id="g6707" transform="translate(155.0249,203.9355)"><path d="m 0,0 v -34.638 l 45,-31.507 45,31.507 V 0" style="fill:none;stroke:#000000;stroke-width:15;stroke-linecap:butt;stroke-linejoin:miter;stroke-miterlimit:22.926;stroke-dasharray:none;stroke-opacity:1" id="path6709"></path></g><g id="g6711" transform="translate(285.4463,156.1846)"><path d="m 0,0 -40.421,13.113 m -90,0 -87.525,-30 c -31.215,-10.698 -60,-27.001 -60,-60 v -71.796 h 384.5" style="fill:none;stroke:#000000;stroke-width:15;stroke-linecap:butt;stroke-linejoin:miter;stroke-miterlimit:22.926;stroke-dasharray:none;stroke-opacity:1" id="path6713"></path></g><g id="g6715" transform="translate(245.0249,169.2979)"><path d="M 0,0 V -161.796 M -90,0 v -161.796" style="fill:none;stroke:#000000;stroke-width:15;stroke-linecap:butt;stroke-linejoin:miter;stroke-miterlimit:22.926;stroke-dasharray:none;stroke-opacity:1" id="path6717"></path></g><g id="g6719" transform="translate(111.2627,154.2979)"><path d="m 0,0 -22.237,-74.776 19.863,-9.453 11.661,-62.567" style="fill:none;stroke:#000000;stroke-width:15;stroke-linecap:butt;stroke-linejoin:miter;stroke-miterlimit:22.926;stroke-dasharray:none;stroke-opacity:1" id="path6721"></path></g><g id="g6723" transform="translate(200.0249,401.7969)"><path d="M 0,0 C -18.397,0 -29.762,18.531 -53.292,15.726 -70.555,13.667 -89.999,4.258 -89.999,-15 V -120.001 C -89.999,-169.494 -49.5,-210 0,-210 c 49.499,0 89.999,40.506 89.999,89.999 V -15 C 89.999,2.258 70.554,13.667 53.291,15.726 29.761,18.531 18.396,0 0,0 Z" style="fill:none;stroke:#000000;stroke-width:15;stroke-linecap:butt;stroke-linejoin:miter;stroke-miterlimit:22.926;stroke-dasharray:none;stroke-opacity:1" id="path6725"></path></g><g id="g6727" transform="translate(291.1602,70.0693)"><path d="M 0,0 -11.66,-62.567" style="fill:none;stroke:#000000;stroke-width:15;stroke-linecap:butt;stroke-linejoin:miter;stroke-miterlimit:22.926;stroke-dasharray:none;stroke-opacity:1" id="path6729"></path></g><g id="g6731" transform="translate(110.0259,311.7959)"><path d="m 0,0 c 0,-8.248 6.75,-15 15,-15 h 45 c 8.25,0 15,6.75 15,15 v 30 m 104.999,0 H 0 m 104.999,0 V 0 c 0,-8.248 6.75,-15 15,-15 h 45 c 8.25,0 15,6.75 15,15" style="fill:none;stroke:#000000;stroke-width:15;stroke-linecap:butt;stroke-linejoin:miter;stroke-miterlimit:22.926;stroke-dasharray:none;stroke-opacity:1" id="path6733"></path></g><g id="g6735" transform="translate(245.0244,119.8838)"><path d="M 0,0 -24.087,-12.17 -45,17.907" style="fill:none;stroke:#000000;stroke-width:15;stroke-linecap:butt;stroke-linejoin:miter;stroke-miterlimit:22.926;stroke-dasharray:none;stroke-opacity:1" id="path6737"></path></g><g id="g6739" transform="translate(220.9375,107.7139)"><path d="M 0,0 -10.259,-22.649 H -31.567 L -41.825,0" style="fill:none;stroke:#000000;stroke-width:15;stroke-linecap:butt;stroke-linejoin:miter;stroke-miterlimit:22.926;stroke-dasharray:none;stroke-opacity:1" id="path6741"></path></g><g id="g6743" transform="translate(189.3706,85.0645)"><path d="M 0,0 -34.346,-77.563 M 21.308,0 55.654,-77.563" style="fill:none;stroke:#000000;stroke-width:15;stroke-linecap:butt;stroke-linejoin:miter;stroke-miterlimit:22.926;stroke-dasharray:none;stroke-opacity:1" id="path6745"></path></g><g id="g6747" transform="translate(132.2319,490.4697)"><path d="m 0,0 c -18.16,-9.339 -30,-23.309 -30,-41.819 -12.754,-3.453 -22.208,-15.158 -22.208,-28.965 l -0.003,-77.89 m 240.003,0 -0.002,77.89 c 0,13.807 -9.455,25.512 -22.208,28.965 0,36.991 -47.286,55.851 -97.791,55.851 -19.088,0 -37.713,-2.696 -53.502,-8.045" style="fill:none;stroke:#000000;stroke-width:15;stroke-linecap:butt;stroke-linejoin:miter;stroke-miterlimit:22.926;stroke-dasharray:none;stroke-opacity:1" id="path6749"></path></g><g id="g6751" transform="translate(426.1396,183.8633)"><path d="m 0,0 c -15.552,-4.082 -16.039,-18.641 -14.035,-26.276 l 1.904,-7.254 c -18.816,-18.315 4.141,-54.258 29.347,-45.68 16.917,5.758 22.297,30.577 16.812,48.703 C 28.786,-13.177 15.554,4.083 0,0 Z m -68.28,0 c 15.552,-4.082 16.04,-18.641 14.036,-26.276 l -1.904,-7.254 c 18.815,-18.315 -4.141,-54.258 -29.347,-45.68 -16.917,5.758 -22.297,30.577 -16.813,48.703 5.243,17.33 18.475,34.59 34.028,30.507 z" style="fill:none;stroke:#000000;stroke-width:15;stroke-linecap:butt;stroke-linejoin:miter;stroke-miterlimit:22.926;stroke-dasharray:none;stroke-opacity:1" id="path6753"></path></g><g id="g6755" transform="translate(368.2832,110.2598)"><path d="m 0,0 23.717,-22.225 v -47.5" style="fill:none;stroke:#000000;stroke-width:15;stroke-linecap:butt;stroke-linejoin:miter;stroke-miterlimit:22.926;stroke-dasharray:none;stroke-opacity:1" id="path6757"></path></g><g id="g6759" transform="translate(415.7158,110.2598)"><path d="M 0,0 -23.716,-22.225" style="fill:none;stroke:#000000;stroke-width:15;stroke-linecap:butt;stroke-linejoin:miter;stroke-miterlimit:22.926;stroke-dasharray:none;stroke-opacity:1" id="path6761"></path></g><g id="g6763" transform="translate(466.2666,35.1289)"><path d="M 0,0 10.558,10.656 M -12.231,-8.982 c -17.784,-11.781 -39.107,-18.645 -62.036,-18.645 -62.132,0 -112.5,50.368 -112.5,112.5 0,62.133 50.368,112.5 112.5,112.5 62.132,0 112.5,-50.367 112.5,-112.5 0,-22.929 -6.865,-44.251 -18.644,-62.035" style="fill:none;stroke:#000000;stroke-width:15;stroke-linecap:butt;stroke-linejoin:miter;stroke-miterlimit:22.926;stroke-dasharray:none;stroke-opacity:1" id="path6765"></path></g></g></g></g></svg>