<svg xmlns="http://www.w3.org/2000/svg" xmlns:xlink="http://www.w3.org/1999/xlink" id="Layer_1" x="0px" y="0px" viewBox="0 0 511.946 511.946" style="enable-background:new 0 0 511.946 511.946;" xml:space="preserve"><g>	<g>		<path style="fill:#5972A5;" d="M240.913,263.213v222.41c0,10.39-8.43,18.82-18.82,18.82c-5.2,0-9.91-2.11-13.32-5.51&#10;&#9;&#9;&#9;c-3.4-3.41-5.51-8.12-5.51-13.31v-214.59l-75.29-15.06v-67.76h37.94C207.333,188.213,240.913,221.783,240.913,263.213z"></path>		<path style="fill:#3B5A9B;" d="M203.263,329.963v-58.93l-75.29-15.06v-67.76h30.5c-0.2,1.21-0.42,2.4-0.65,3.59&#10;&#9;&#9;&#9;c-0.01,0.06-0.02,0.11-0.03,0.17c-1.44,7.16,4.1,13.7,11.41,13.58c15.61-0.25,35.11,11.65,45.05,24.36&#10;&#9;&#9;&#9;C238.803,261.283,226.513,302.893,203.263,329.963z"></path>		<path style="fill:#5972A5;" d="M383.973,188.208h-37.941c-41.421,0-75,33.579-75,75V485.62c0,10.396,8.428,18.823,18.823,18.823h0&#10;&#9;&#9;&#9;c10.396,0,18.823-8.428,18.823-18.823V271.032l75.294-15.059V188.208z"></path>		<path style="fill:#FB695B;" d="M391.503,155.923c0,0-18.56,2.65-42.34,2.1v-0.01c-21.32-0.5-46.82-3.59-66.89-13.49&#10;&#9;&#9;&#9;c-16.56-8.17-36.04-8.17-52.6,0c-20.07,9.9-45.57,12.99-66.89,13.5c-23.78,0.55-42.34-2.1-42.34-2.1l7.53-45.18&#10;&#9;&#9;&#9;c0,0,42.22,19.61,73.93,3.52c1.72-0.86,3.41-1.84,5.06-2.93c16.63-11,26.42-29.79,26.42-49.73v-31.51&#10;&#9;&#9;&#9;c0-12.48,10.11-22.59,22.59-22.59c6.24,0,11.89,2.53,15.98,6.61c4.08,4.09,6.61,9.74,6.61,15.98v31.51&#10;&#9;&#9;&#9;c0,19.94,9.79,38.73,26.42,49.73c1.86,1.23,3.78,2.32,5.73,3.26c31.63,15.48,73.26-3.85,73.26-3.85L391.503,155.923z"></path>		<path style="fill:#F54432;" d="M391.503,155.923c0,0-18.56,2.65-42.34,2.1v-0.01c1.11-7.05-2.91-13.86-9.66-16.46&#10;&#9;&#9;&#9;c-12.44-4.79-22.69-15.04-28.79-26.96c31.63,15.48,73.26-3.85,73.26-3.85L391.503,155.923z"></path>		<path style="fill:#F54432;" d="M201.903,114.263c-6.02,12.49-16.56,22.32-29.46,27.29c-6.75,2.6-10.77,9.42-9.66,16.47&#10;&#9;&#9;&#9;c-23.78,0.55-42.34-2.1-42.34-2.1l7.53-45.18C127.973,110.743,170.193,130.353,201.903,114.263z"></path>		<path style="fill:#3B5A9B;" d="M308.683,329.963v-58.93l75.29-15.06v-67.76h-30.5c0.2,1.21,0.42,2.4,0.65,3.59&#10;&#9;&#9;&#9;c0.01,0.06,0.02,0.11,0.03,0.17c1.44,7.16-4.1,13.7-11.41,13.58c-15.61-0.25-35.11,11.65-45.05,24.36&#10;&#9;&#9;&#9;C273.143,261.283,285.433,302.893,308.683,329.963z"></path>		<path style="fill:#FF9EB1;" d="M190.583,323.523c-0.36,0.39-0.73,0.77-1.1,1.15c-15.06,15.3-33,21.65-53.3,21.65&#10;&#9;&#9;&#9;c-54.94,0.55-138.49-39.33-127.74-164.97c11.56-134.94,92.13-149.69,115.48-151.12c4.01-0.25,6.33-0.1,6.33-0.1&#10;&#9;&#9;&#9;c29.89,0,54.13,24.62,54.13,54.99c0,28.49-21.31,51.9-48.61,54.7l-2.97,7.62l7.24,6.94c1.7,7.63,2.91,16.69,2.91,26.97&#10;&#9;&#9;&#9;c0,6.91-0.82,13.82-2.13,20.45l-6.38,10.6l2.25,5.28c20.7-5.38,42.53-0.64,57.58,14.65&#10;&#9;&#9;&#9;C217.713,256.143,215.973,296.673,190.583,323.523z"></path>		<path style="fill:#FF758F;" d="M190.583,323.523c-0.36,0.39-0.73,0.77-1.1,1.15c-15.06,15.3-33,21.65-53.3,21.65&#10;&#9;&#9;&#9;c-54.94,0.55-138.49-39.33-127.74-164.97c11.56-134.94,92.13-149.69,115.48-151.12C100.073,64.983-14.367,249.613,190.583,323.523&#10;&#9;&#9;&#9;z"></path>		<path style="fill:#FF9EB1;" d="M392.003,345.363c-5.6,0.7-11.05,1.01-16.24,0.96c-20.3,0-38.24-6.35-53.3-21.65&#10;&#9;&#9;&#9;c-26.43-26.84-28.57-68.19-4.79-92.34c7.03-7.14,15.53-11.98,24.71-14.56l37.14,14.01l12.95-16.15l-23.22-27.42&#10;&#9;&#9;&#9;c-0.17-2.28-0.26-4.57-0.26-6.86c0-8.83,0.9-16.76,2.22-23.66v-0.01l21.26-27.18l-52.14-9.91c-7.97-9.57-12.77-21.94-12.77-35.47&#10;&#9;&#9;&#9;c0-30.37,24.24-54.99,54.13-54.99c0,0,26.36-1.67,54.68,15.63c29.1,17.75,60.27,55.5,67.13,135.59&#10;&#9;&#9;&#9;C513.233,295.123,445.653,338.573,392.003,345.363z"></path>		<path style="fill:#FF758F;" d="M409.663,243.083c-11.1,14.49-37.11,47.58-17.66,102.28c-5.6,0.7-11.05,1.01-16.24,0.96&#10;&#9;&#9;&#9;c-20.3,0-38.24-6.35-53.3-21.65c-26.43-26.84-28.57-68.19-4.79-92.34c15.05-15.29,36.88-20.03,57.58-14.65l4.27-7.09l-8.31-8.37&#10;&#9;&#9;&#9;c-1.36-6.76-2.22-13.82-2.22-20.87c0-10.14,1.18-19.08,2.84-26.65l5.35-7.67l-1.01-7.21c-27.3-2.8-48.61-26.21-48.61-54.7&#10;&#9;&#9;&#9;c0-30.37,24.24-54.99,54.13-54.99c0,0,26.36-1.67,54.68,15.63c-10.33,10.78-28.89,38.99-6.46,88.41&#10;&#9;&#9;&#9;C459.523,199.443,423.493,225.003,409.663,243.083z"></path>		<path style="fill:#60DAA8;" d="M498.723,491.981L498.723,491.981c-9.752,13.475-28.581,16.493-42.056,6.741L310.275,392.779&#10;&#9;&#9;&#9;l35.314-48.797l146.392,105.944C505.456,459.677,508.474,478.506,498.723,491.981z"></path>		<path style="fill:#F3F5FC;" d="M301.233,441.063c-7.54,1.21-15.03,1.69-22.39,1.49c-56.62-1.49-105.96-42.93-115.52-100.76&#10;&#9;&#9;&#9;c0.47-0.96,61.05-124.22,61.13-125.46c11.72-6.4,24.71-10.94,38.64-13.17c3.02-0.49,6.03-0.85,9.03-1.1&#10;&#9;&#9;&#9;c62.24-5.27,118.94,38.31,128.99,100.98C411.643,368.743,366.923,430.533,301.233,441.063z"></path>		<path style="fill:#E8ECF9;" d="M278.843,442.553c-56.82-1.5-106.31-43.22-115.63-101.37c-10.53-65.7,34.19-127.49,99.88-138.02&#10;&#9;&#9;&#9;c3.02-0.49,6.03-0.85,9.03-1.1C243.603,233.353,171.913,332.033,278.843,442.553z"></path>		<circle style="fill:#5972A5;" cx="255.973" cy="263.502" r="15.059"></circle>		<circle style="fill:#5972A5;" cx="233.385" cy="346.326" r="15.059"></circle>		<circle style="fill:#5972A5;" cx="331.267" cy="263.502" r="15.059"></circle>	</g>	<g>		<path style="fill:none;stroke:#000000;stroke-width:15;stroke-linecap:round;stroke-linejoin:round;stroke-miterlimit:10;" d="&#10;&#9;&#9;&#9;M240.913,436.743v48.88c0,10.39-8.43,18.82-18.82,18.82c-10.4,0-18.83-8.42-18.83-18.82v-70.7"></path>		<path style="fill:none;stroke:#000000;stroke-width:15;stroke-linecap:round;stroke-linejoin:round;stroke-miterlimit:10;" d="&#10;&#9;&#9;&#9;M143.693,188.213h22.22c23.19,0,43.92,10.52,57.67,27.05"></path>		<path style="fill:none;stroke:#000000;stroke-width:15;stroke-linecap:round;stroke-linejoin:round;stroke-miterlimit:10;" d="&#10;&#9;&#9;&#9;M302.663,202.013c12.24-8.69,27.21-13.8,43.37-13.8h22.22"></path>		<path style="fill:none;stroke:#000000;stroke-width:15;stroke-linecap:round;stroke-linejoin:round;stroke-miterlimit:10;" d="&#10;&#9;&#9;&#9;M308.683,441.003v44.62c0,10.4-8.43,18.82-18.83,18.82c-10.39,0-18.82-8.43-18.82-18.82v-42.18"></path>		<path style="fill:none;stroke:#000000;stroke-width:15;stroke-linecap:round;stroke-linejoin:round;stroke-miterlimit:10;" d="&#10;&#9;&#9;&#9;M172.603,120.603c11.59,0.04,23.78-2.28,34.36-9.27c16.63-11,26.42-29.79,26.42-49.73v-31.51c0-12.48,10.11-22.59,22.59-22.59&#10;&#9;&#9;&#9;c12.486,0,22.59,10.104,22.59,22.59v31.51c0,19.94,9.79,38.73,26.42,49.73c10.58,6.99,22.77,9.31,34.36,9.27"></path>		<path style="fill:none;stroke:#000000;stroke-width:15;stroke-linecap:round;stroke-linejoin:round;stroke-miterlimit:10;" d="&#10;&#9;&#9;&#9;M141.743,157.743c23.19,1.11,60.61,0.26,87.93-13.22c16.56-8.17,36.04-8.17,52.6,0c27.32,13.48,64.74,14.33,87.93,13.22"></path>		<path style="fill:none;stroke:#000000;stroke-width:15;stroke-linecap:round;stroke-linejoin:round;stroke-miterlimit:10;" d="&#10;&#9;&#9;&#9;M162.033,342.243c-8.1,2.8-16.74,4.08-25.85,4.08c-54.94,0.55-138.49-39.33-127.74-164.97&#10;&#9;&#9;&#9;c13.54-158.09,121.81-151.22,121.81-151.22c29.89,0,54.13,24.62,54.13,54.99c0,28.49-21.31,51.9-48.61,54.7&#10;&#9;&#9;&#9;c3.51,9.48,7.18,23.64,7.18,41.53c0,12.68-2.77,25.37-6.26,36.33c22.701-5.9,45.723,0.558,60.16,17.46"></path>		<path style="fill:none;stroke:#000000;stroke-width:15;stroke-linecap:round;stroke-linejoin:round;stroke-miterlimit:10;" d="&#10;&#9;&#9;&#9;M135.77,139.832c-10.141,1.044-20.642-0.768-30.203-5.752"></path>		<path style="fill:none;stroke:#000000;stroke-width:15;stroke-linecap:round;stroke-linejoin:round;stroke-miterlimit:10;" d="&#10;&#9;&#9;&#9;M103.357,237.188c9.703-9.856,21.33-16.386,33.338-19.509"></path>		<path style="fill:none;stroke:#000000;stroke-width:15;stroke-linecap:round;stroke-linejoin:round;stroke-miterlimit:10;" d="&#10;&#9;&#9;&#9;M454.593,59.663c22.81,21.42,43.48,58.29,48.91,121.69c9.13,106.74-49.79,151.58-101.42,162.32"></path>		<path style="fill:none;stroke:#000000;stroke-width:15;stroke-linecap:round;stroke-linejoin:round;stroke-miterlimit:10;" d="&#10;&#9;&#9;&#9;M344.213,217.293c9.97-2.46,20.65-2.31,31.04,0.39c-3.49-10.96-6.26-23.65-6.26-36.33c0-17.89,3.67-32.05,7.18-41.53&#10;&#9;&#9;&#9;c-27.3-2.8-48.61-26.21-48.61-54.7c0-30.37,24.24-54.99,54.13-54.99c0,0,20.02-1.27,43.92,9.86"></path>		<path style="fill:none;stroke:#000000;stroke-width:15;stroke-linecap:round;stroke-linejoin:round;stroke-miterlimit:10;" d="&#10;&#9;&#9;&#9;M376.176,139.832c10.141,1.044,20.642-0.768,30.203-5.752"></path>		<path style="fill:none;stroke:#000000;stroke-width:15;stroke-linecap:round;stroke-linejoin:round;stroke-miterlimit:10;" d="&#10;&#9;&#9;&#9;M399.105,229.018c-7.429-5.391-15.551-9.18-23.854-11.339"></path>					<line style="fill:none;stroke:#000000;stroke-width:15;stroke-linecap:round;stroke-linejoin:round;stroke-miterlimit:10;" x1="431.883" y1="406.433" x2="390.993" y2="376.843"></line>		<path style="fill:none;stroke:#000000;stroke-width:15;stroke-linecap:round;stroke-linejoin:round;stroke-miterlimit:10;" d="&#10;&#9;&#9;&#9;M460.243,426.953l31.74,22.97c13.47,9.75,16.49,28.58,6.74,42.06c-9.75,13.47-28.58,16.49-42.06,6.74l-105.39-76.27"></path>		<path style="fill:none;stroke:#000000;stroke-width:15;stroke-linecap:round;stroke-linejoin:round;stroke-miterlimit:10;" d="&#10;&#9;&#9;&#9;M172.683,271.833c16.23-35.28,49.2-62.07,90.41-68.67c65.7-10.53,127.49,34.19,138.02,99.88c10.53,65.7-34.19,127.49-99.88,138.02&#10;&#9;&#9;&#9;c-79.925,12.81-149.625-55.466-138.41-135.63"></path>		<path style="fill:none;stroke:#000000;stroke-width:15;stroke-linecap:round;stroke-linejoin:round;stroke-miterlimit:10;" d="&#10;&#9;&#9;&#9;M331.267,280.502v13.118c0,20.792-16.855,37.647-37.647,37.647c-20.792,0-37.647-16.855-37.647-37.647v-13.118"></path>					<circle style="fill:none;stroke:#000000;stroke-width:15;stroke-linecap:round;stroke-linejoin:round;stroke-miterlimit:10;" cx="255.973" cy="263.502" r="15.059"></circle>		<path style="fill:none;stroke:#000000;stroke-width:15;stroke-linecap:round;stroke-linejoin:round;stroke-miterlimit:10;" d="&#10;&#9;&#9;&#9;M293.62,333.267v43.176c0,16.634-13.484,30.118-30.118,30.118c-16.633,0-30.118-13.484-30.118-30.118v-12.118"></path>					<circle style="fill:none;stroke:#000000;stroke-width:15;stroke-linecap:round;stroke-linejoin:round;stroke-miterlimit:10;" cx="233.385" cy="346.326" r="15.059"></circle>					<circle style="fill:none;stroke:#000000;stroke-width:15;stroke-linecap:round;stroke-linejoin:round;stroke-miterlimit:10;" cx="331.267" cy="263.502" r="15.059"></circle>	</g></g><g></g><g></g><g></g><g></g><g></g><g></g><g></g><g></g><g></g><g></g><g></g><g></g><g></g><g></g><g></g></svg>